<svg id="Layer_1" enable-background="new 0 0 51 51" height="512" viewBox="0 0 51 51" width="512" xmlns="http://www.w3.org/2000/svg"><g><g><g><g enable-background="new"><g><path d="m15.81454 49.43515-3.63731-2.11274c-.17839-.10592-.28988-.32887-.28988-.64662l-.0836-28.83665 3.63728 2.11277.08363 28.83662c0 .31774.1115.5407.28988.64662z" fill="#ecf0f1"/></g><g><path d="m39.12007 6.28091.08175 28.83629c.00181.63799-.44518 1.4122-1.0004 1.73275l-21.67133 12.51196c-.55522.32056-1.00513.06417-1.00693-.57382l-.08175-28.8363z" fill="#e0e2e2"/><path d="m17.11643 20.91562 20.3394-11.74309.07376 25.94923c-.01089.06424-.11105.23708-.18073.29042l-20.1584 11.63749z" fill="#fff"/></g></g><g enable-background="new"><g><path d="m38.82586 3.6745c-.18397-.10592-.43482-.08921-.71355.07247l-21.67343 12.51465c-.55186.31771-1.00343 1.09257-1.00343 1.73365l.00558 1.95664-3.63728-2.11277-.00558-1.9566c0-.6355.45153-1.41593 1.00339-1.73368l21.67347-12.51466c.27872-.15607.52958-.17281.71351-.06689z" fill="#3498db"/></g><g><path d="m38.11115 3.74608c.55166-.3185 1.00512-.06417 1.00693.57383l.00555 1.95895-23.68222 13.67293-.00555-1.95895c-.00181-.63799.44873-1.41426 1.00039-1.73276z" fill="#328eb7"/></g></g></g><g><path d="m17.71736 16.57047c.33113-.19118.60378-.03938.60488.34829.00108.3805-.26983.84252-.60096 1.0337s-.60377.04298-.60485-.33752c-.0011-.38768.2698-.8533.60093-1.04447z" fill="#84dbff"/></g><g><path d="m19.93842 15.28814c.33113-.19118.60378-.03938.60488.34829.00108.3805-.26983.84252-.60096 1.0337-.33425.19298-.60377.04297-.60485-.33752-.0011-.38768.26668-.85149.60093-1.04447z" fill="#f1c40f"/></g><g><path d="m22.15948 14.00581c.33113-.19118.60378-.03938.60488.34829.00108.3805-.26983.84252-.60096 1.0337-.33425.19298-.60377.04298-.60485-.33752-.00109-.38769.26668-.85149.60093-1.04447z" fill="#2ecc71"/></g><g><path d="m37.21425 5.60732.00287.69405-7.46914 4.31231-.00287-.69405z" fill="#fff"/></g></g><g><g><path d="m26.29879 29.9751.00091.32037-3.43968 1.9859-.00091-.32037z" fill="#d4d6d6"/></g><g><path d="m31.91121 30.09443.00091.32037-3.80917 2.19923-.00091-.32037z" fill="#d4d6d6"/></g><g><path d="m25.94552 33.53873.00091.32037-1.49479.86301-.0009-.32037z" fill="#d4d6d6"/></g><g><path d="m24.19209 34.55107.00091.32037-3.54046 2.04408-.00091-.32036z" fill="#d4d6d6"/></g><g><path d="m22.59616 36.52795.00091.32037-1.94154 1.12095-.00091-.32037z" fill="#d4d6d6"/></g><g><path d="m22.60865 40.932.00091.32037-1.94154 1.12095-.00091-.32037z" fill="#d4d6d6"/></g><g><path d="m33.69164 24.36265c.46751-.26992.85014-.05188.85166.48534.00152.5372-.37861 1.19917-.84612 1.46908s-.85015.04833-.85167-.48886c-.00152-.53722.37862-1.19565.84613-1.46556z" fill="#e74c3c"/></g><g><path d="m31.9017 26.74026.00091.32037-2.42188 1.39827-.00091-.32037z" fill="#d4d6d6"/></g><g><path d="m31.89872 25.68651.00092.32425-3.80918 2.19923-.00092-.32425z" fill="#d4d6d6"/></g><g><path d="m29.22117 28.28786.00091.32037-2.61335 1.50882-.00091-.32037z" fill="#d4d6d6"/></g><g><path d="m27.8141 28.04477.00092.32424-1.57204.90762-.00092-.32424z" fill="#d4d6d6"/></g><g><path d="m25.93302 29.13081.00092.32424-1.49478.86302-.00092-.32425z" fill="#d4d6d6"/></g><g enable-background="new"><g><path d="m29.24615 37.09983.00091.32037-2.61335 1.50882-.00091-.32037z" fill="#d4d6d6"/></g><g><path d="m25.958 37.94278.00092.32424-1.49478.86302-.00092-.32425z" fill="#d4d6d6"/></g><g><path d="m26.32377 38.78707.00091.32037-3.43968 1.9859-.00091-.32037z" fill="#d4d6d6"/></g><g><path d="m24.20457 38.95512.00092.32425-3.54045 2.04408-.00092-.32425z" fill="#d4d6d6"/></g><g><path d="m35.28317 31.51504c.44004-.25406.80062-.04856.80206.45708l.0046 1.62499c.00143.50564-.35682 1.12228-.79686 1.37634l-15.90516 9.18285c-.44003.25405-.80062.05243-.80205-.45321l-.00461-1.62499c-.00143-.50564.35682-1.12616.79685-1.38021zm.52787 2.24303-.00461-1.62499c-.00093-.32809-.23682-.45866-.52234-.29381l-15.90517 9.18285c-.28551.16484-.5199.56693-.51897.89501l.00461 1.62499c.00093.32809.23683.45864.52234.2938l15.90516-9.18285c.28553-.16485.51991-.56692.51898-.895" fill="#d4d6d6"/></g><g><path d="m33.71659 33.16407c.47255-.27283.85931-.05244.86086.49058.00154.543-.3827 1.21211-.85526 1.48494-.47255.27283-.85932.04885-.86086-.49414-.00154-.54302.38271-1.20855.85526-1.48138z" fill="#9b59b6"/></g><g><path d="m31.92669 35.55223.00091.32037-2.42189 1.39827-.00091-.32037z" fill="#d4d6d6"/></g><g><path d="m33.70419 28.78866c.45704-.26387.8311-.04725.83259.47791.00149.52518-.37014 1.16886-.82718 1.43273s-.8311.05072-.83258-.47447c-.00149-.52516.37013-1.1723.82717-1.43617z" fill="#f1c40f"/></g><g><path d="m31.9237 34.49848.00092.32424-3.80918 2.19923-.00092-.32424z" fill="#d4d6d6"/></g><g><path d="m29.23367 32.69579.00091.32037-2.61335 1.50881-.00091-.32036z" fill="#d4d6d6"/></g><g><path d="m27.82659 32.45269.00091.32037-1.57204.90762-.00091-.32037z" fill="#d4d6d6"/></g><g><path d="m26.31129 34.38303.0009.32036-3.43968 1.9859-.00091-.32036z" fill="#d4d6d6"/></g><g><path d="m35.27069 27.11098c.44004-.25406.80062-.04856.80206.45709l.0046 1.6211c.00143.50565-.35681 1.12616-.79685 1.38022l-15.90516 9.18285c-.44003.25406-.80063.04856-.80206-.45709l-.00459-1.62111c-.00143-.50565.35682-1.12617.79685-1.38022zm.52785 2.23916-.0046-1.6211c-.00093-.3281-.23683-.46253-.52235-.29768l-15.90516 9.18284c-.28551.16484-.51989.57079-.51896.89888l.00459 1.62111c.00093.3281.23683.45865.52234.29381l15.90516-9.18285c.28553-.16485.51991-.56691.51898-.89501" fill="#d4d6d6"/></g><g><path d="m31.9142 31.14818.00091.32037-2.42188 1.39828-.00091-.32037z" fill="#d4d6d6"/></g><g><path d="m27.83908 36.85674.00092.32424-1.57204.90762-.00092-.32424z" fill="#d4d6d6"/></g><g><path d="m22.58367 32.12003.0009.32037-1.94154 1.12095-.0009-.32037z" fill="#d4d6d6"/></g><g><path d="m24.17959 30.14315.00092.32425-3.54045 2.04408-.00092-.32424z" fill="#d4d6d6"/></g><g><path d="m35.25819 22.70306c.44004-.25406.80062-.04856.80206.45708l.00461 1.62499c.00143.50564-.35682 1.12229-.79686 1.37635l-15.90516 9.18285c-.44003.25405-.80062.05242-.80205-.45322l-.00461-1.62499c-.00143-.50564.35682-1.12616.79685-1.38021zm.52787 2.24303-.00461-1.62499c-.00093-.32809-.23682-.45864-.52234-.2938l-15.90517 9.18285c-.28551.16484-.5199.56691-.51897.895l.00461 1.62499c.00093.32809.23683.45865.52234.29381l15.90516-9.18285c.28553-.16484.51991-.56692.51898-.89501" fill="#d4d6d6"/></g></g><g><path d="m31.32941 19.50465-1.04727.87139c-.06963.3611-.17963.72615-.32328 1.08745l.58406.70279-.77676 1.34541-.90548-.14606c-.24139.30559-.50303.58423-.7816.82626l-.22837 1.33807-1.09841.63417-.23519-1.07044c-.27903.0799-.5414.10379-.78372.07748l-.90169 1.18943-.78185-.44555.57817-1.3738c-.14523-.19452-.25692-.43158-.32838-.71122l-1.04878.33877-.00359-1.26603 1.04728-.86755c.06964-.3611.17963-.72615.32328-1.08745l-.58406-.70279.77677-1.34542.90546.14222c.2414-.30174.50304-.58041.7816-.82629l.22837-1.33807 1.09841-.63417.23519 1.07044c.27904-.07605.54141-.09992.78372-.07745l.90171-1.18559.78184.44556-.57817 1.3738c.14523.19452.25693.43157.32838.71122l1.04877-.34261zm-4.03308 3.92521c1.06819-.61672 1.932-2.11292 1.92851-3.34419-.00348-1.22743-.87296-1.72676-1.94114-1.11004-1.07154.61865-1.93534 2.1187-1.93187 3.34612.0035 1.23127.87296 1.72676 1.9445 1.10811" fill="#3d566e"/></g></g></g></svg>