<svg id="Layer_1" enable-background="new 0 0 67 67" height="512" viewBox="0 0 67 67" width="512" xmlns="http://www.w3.org/2000/svg"><g><g><g><g><g><g><g><g enable-background="new"><g><path d="m7.8072972 65.3756485-4.2503662-2.4700356c-.3312891-.1925278-.5364754-.6023254-.5381281-1.1852684l4.2503643 2.4700394c.0016529.5829468.2068393.9927445.53813 1.1852646z" fill="#c4c2c0"/></g><g><path d="m31.4691525 3.9700418-4.2503644-2.4700418 9.4691239 5.3961797 4.2503624 2.4700417z" fill="#b2b0af"/></g><g><path d="m7.2687316 64.1891937-4.2502742-2.4699325-.1232431-44.0472126 4.2502907 2.4699344z" fill="#b2b0af"/></g><g><path d="m7.2687316 64.1891937-4.2502742-2.4699325-.0775626-27.7183609 4.2502907 2.4699325z" fill="#c4c2c0"/></g><g><path d="m8.9847622 16.9514103-4.2503638-2.4700413 22.4843897-12.981369 4.2503644 2.4700418z" fill="#d6d4d2"/></g><g><path d="m7.1442876 20.1411743-4.2503643-2.4700413c-.0033267-1.1734123.8192961-2.6001854 1.8404751-3.189764l4.2503638 2.4700413c-1.0211787.5895786-1.8438015 2.0163517-1.8404746 3.189764z" fill="#c4c2c0"/></g><g><path d="m31.4691525 3.9700418 9.4691219 5.3961797.1001549 35.3274689c.0033264 1.1734123-.8192902 2.5982552-1.8404694 3.1878357l-30.0762815 17.3645524c-1.0211792.5895767-1.8491846.1177215-1.852511-1.0556946l-.1248798-44.0492096c-.0033269-1.1734123.8192959-2.6001854 1.8404746-3.189764z" fill="#e9e8e6"/></g></g></g><g><g enable-background="new"><g><path d="m33.271534 13.2394686-1.2726326-.7395716c-.285183-.1657324-.461813-.5184956-.4632359-1.0203075l1.2726345.7395725c.0014229.5018129.178051.8545761.463234 1.0203066z" fill="#b2b0af"/></g><g><path d="m32.7870102 4.7096152-1.2726345-.7395734 8.1512661 4.6451602 1.2726326.7395734z" fill="#d6d4d2"/></g><g><path d="m32.8083 12.219162-1.2726345-.7395725-.0212898-7.5095477 1.2726345.7395734z" fill="#c4c2c0"/></g><g><path d="m32.7870102 4.7096152 8.1512642 4.6451602-6.5352898 3.7731514c-.879055.5075226-1.5918236.1013384-1.5946846-.9087648z" fill="#d6d4d2"/></g></g></g></g></g><g><g><g><g enable-background="new"><g><path d="m38.6595535 13.6980734-18.7123985 10.803628.0039387 2.8017215 18.7084598-10.8013344z" fill="#a0a8aa"/></g></g></g><g><g enable-background="new"><g><path d="m30.9917812 18.1250553v2.8040371l7.6677723-4.427021v-2.8039904z" fill="#7e8a8c"/></g></g></g></g><g><g><path d="m16.9745693 22.5704556c.2534523-.1463318.4641685-.0262966.4649944.2649384l.0189438 6.6819057c.0008259.2912579-.2085228.6538181-.4619751.800148l-5.8150015 3.3572922c-.2534513.1463318-.4641476.0262833-.4649734-.2649727l-.0189438-6.6819057c-.0008249-.291235.2085028-.6537838.4619551-.8001137zm-3.7337189 8.3150539 3.0965233-5.3633919-.566678-.3229313-2.5335493 4.3799152-.8573093-.496891-.57024.9876709z" fill="#fc7e7e"/></g><g><path d="m15.7707109 25.1991863.5666819.3229351-3.0965233 5.3633919-1.4312525-.8156261.5702229-.9876652.8573256.4968757z" fill="#fff"/></g></g><g><g><g enable-background="new"><g><path d="m38.6595535 26.8149338-18.7123985 10.803627.0039387 2.8017235 18.7084598-10.8013363z" fill="#a0a8aa"/></g></g></g><g><g enable-background="new"><g><path d="m30.9917812 31.2419147v2.8040371l7.6677723-4.427021v-2.8039913z" fill="#7e8a8c"/></g></g></g></g><g><g><path d="m16.9745693 35.6873131c.2534523-.146328.4641685-.0262947.4649944.2649422l.0189438 6.6819038c.0008259.2912598-.2085228.6538162-.4619751.800148l-5.8150015 3.3572922c-.2534513.1463318-.4641476.0262833-.4649734-.2649727l-.0189438-6.6819077c-.0008249-.2912331.2085028-.6537819.4619551-.8001137zm-3.7337189 8.3150558 3.0965233-5.3633919-.566678-.3229332-2.5335493 4.3799171-.8573094-.4968909-.57024.9876709z" fill="#3f9ae0"/></g><g><path d="m15.7707109 38.3160477.5666819.3229332-3.0965233 5.3633918-1.4312525-.815628.5702229-.9876633.8573256.4968758z" fill="#fff"/></g></g><g><g><g enable-background="new"><g><path d="m38.6595535 39.9317932-18.7123985 10.803627.0039387 2.8017235 18.7084598-10.8013382z" fill="#a0a8aa"/></g></g></g><g><g enable-background="new"><g><path d="m30.9917812 44.3587723v2.804039l7.6677723-4.427021v-2.8039895z" fill="#7e8a8c"/></g></g></g></g><g><g><path d="m16.9745693 48.8041725c.2534523-.146328.4641685-.0262947.4649944.2649422l.0189438 6.6819038c.0008259.2912598-.2085228.6538162-.4619751.800148l-5.8150015 3.3572922c-.2534513.1463318-.4641476.0262833-.4649734-.2649727l-.0189438-6.6819077c-.0008249-.2912331.2085028-.6537819.4619551-.8001137zm-3.7337189 8.3150559 3.0965233-5.3633919-.566678-.3229332-2.5335493 4.3799171-.8573093-.496891-.57024.9876709z" fill="#6d797a"/></g><g><path d="m15.7707109 51.4329071.5666819.3229332-3.0965233 5.3633919-1.4312525-.8156281.5702229-.9876632.8573256.4968757z" fill="#fff"/></g></g></g></g><g><g><path d="m35.2309532 52.8918419c.5104942 1.4224052 1.2192192 2.8646278 2.1013947 4.6438904 2.5524178 5.1246223 5.4567032 3.1719055 5.4567032 3.1719055 4.7430229 4.9858665 7.5779152-.1833725 7.5779152-.1833725 4.529911 2.5325737 7.7960129-7.2805595 7.7960129-7.2805595 3.0876617-5.9473572.4410744-11.5725517.4410744-11.5725517-.3915253-.9961891-.9912262-1.7296867-1.6850662-2.2699165-2.3740082-1.848629-5.8482285-1.3976326-5.8482285-1.3976326-2.8547363.2825012-5.2535172-.911911-5.2535172-.911911-5.2782631-1.0259247-8.2222061.9366837-9.7883606 2.8844719 0 0 0 0-.0049591 0-.4708099.5798569-.8177452 1.1597176-1.0655518 1.6602898-.3667488.7285385-.5798569 1.5264969-.64925 2.3392792v.009922.0049629c-.3122368 3.9896773.0098915 6.4082716.921833 8.9012221z" fill="#f25a5a"/><path d="m34.3091202 43.9856567c.7235756-2.5177231 2.2451096-2.9637566 2.2451096-2.9637566 4.7777176-1.813961 6.7205124 1.9427948 6.7205124 1.9427948-1.3331985 1.5264969 1.1944466 1.9130592 2.6961365 2.2500725 1.5017242.3320847 5.7392082-.5154266 7.478817-1.6702118 1.6652527-1.1052094 3.3387871-.6276588 3.5816345-.523571-3.9847183-3.6130371-4.1466408-3.5008049-7.2541466-4.1797943-3.1124344-.6839485-5.8085709 1.9626389-5.8085709 1.9626389-5.7243233-3.0034142-7.9397316-.8276634-7.9397316-.8276634s0 0-.0049591 0c-.4685402.5815048-.8152885 1.1616325-1.0658417 1.6602097-.3669624.7302322-.5792656 1.5261726-.6482162 2.3405075-.000248.0029258-.000496.0058517-.0007439.0087737z" fill="#dd4a4a"/><path d="m43.9522247 41.3071556-2.4141235-1.0999832 2.1415596 1.9760742z" fill="#f25a5a"/><g><path d="m45.8492126 42.416256c-.9051819.5226059-.9099388 1.3683701-.0117302 1.8903503.8992958.5226135 2.3594284.522625 3.2646103.0000191s.9110336-1.3690071.0117378-1.8916206c-.8982047-.5219804-2.3594398-.5213547-3.2646179.0012512z" fill="#cc4848"/></g><path d="m46.5358047 33.5548058s.5161667.1959343 1.064476.0555649c.5483131-.1403656 2.893116-2.6746311 4.9128342-2.9781475 1.9264984-.2895069 10.4698067-.0236931 10.6093941 8.0020008 0 0-3.3486938-1.4096718-6.9343796-1.5030479-3.5856895-.0933762-5.4905853-1.7741661-5.621315-4.4074059l-3.382946 1.8500137s-.9330788.639946-1.3057861.1131897c-.3727036-.5267601-.0812798-.882988.6410561-.8000793.0840606-.1089516.0522384-.2204743.0166663-.3320885z" fill="#81d672"/><g fill="#6dcb60"><path d="m47.6002846 33.6103745c1.508709-.8626404 2.7874565-2.1710625 4.4190178-2.664957.7877083-.22229 1.6755257-.1786442 2.5235214-.1248951.8545074.0688877 1.7061348.2113476 2.523716.4589634 1.6550446.4234085 3.1940842 1.2988644 4.2934456 2.5955639 1.1316757 1.2866173 1.6221657 3.0284119 1.7625237 4.7591705l-.0482178-1.3131409c-.0506363-.4352226-.1585655-.8647537-.2367401-1.3015442-.1350365-.4196663-.3031235-.8341522-.4738998-1.2444763-.2398682-.3732452-.4182701-.7948265-.7142258-1.1320229-1.1039772-1.4265251-2.7467003-2.3535023-4.4523239-2.8272114-.8568344-.2434006-1.7389221-.3757057-2.6230164-.432251-.4419937-.0337868-.8858795-.0375175-1.3310394-.0173035-.4397507.0075684-.9048004.0724392-1.3364525.2275047-.8613052.3037605-1.5924797.8211079-2.2855492 1.3563347-.6983185.5320226-1.2919083 1.1912518-2.0207596 1.6602651z"/><path d="m63.122509 38.6342201c-1.1345177-.5587425-2.3425026-.9606781-3.5743332-1.2661285-1.2248154-.3148918-2.5213356-.457901-3.768383-.5007477-1.2225647-.0698433-2.4538574-.3529472-3.4520149-1.0382385-1.0085182-.6757202-1.6207962-1.8515434-1.7609596-3.1053391-.0223656.6311607.0892715 1.2753372.3422127 1.8733444.2638664.5930023.6833611 1.1205559 1.1965027 1.529007 1.0400581.8244591 2.3710327 1.1393433 3.6431122 1.2221794 1.2698631.0328903 2.4860229.1563034 3.7225075.380928 1.2284392.2260018 2.4464301.5323372 3.6513556.904995z"/><path d="m63.122509 38.6342201c-.6349564-1.5777206-1.5660095-3.0410385-2.724762-4.3129616-1.1592484-1.2624512-2.6337128-2.308979-4.3352814-2.7746372-.8550873-.2218075-1.7346764-.2703209-2.5971031-.2294712-.8640785.045454-1.7447281.1915836-2.5432739.5729141-.4070435.1839523-.7613831.4391479-1.1122169.6640549l-1.0629654.6967049c-.3598022.2271805-.6840973.5076866-1.0711403.6590843-.1914063.0809212-.3915253.1435127-.5964317.1668892-.2015152.0289307-.427372-.0161667-.5601997-.1898994.1096954.1885033.3492203.2697945.5636902.2617531.21875-.0017891.4322395-.0530472.6375198-.118969.4196777-.127491.7735939-.3796043 1.1485214-.571106l1.105732-.6318245c.3743629-.2121048.7257805-.4354973 1.1031342-.5792732.7598877-.2970009 1.5805321-.4387569 2.4068222-.4625568.8295479-.0234852 1.6613274.0396099 2.4457397.2600803 1.5970573.3984451 2.9997253 1.3833542 4.1810226 2.5528221.598793.5826912 1.1404076 1.2282753 1.6369209 1.9075508.5086365.6720581.9628716 1.3863297 1.3742714 2.1288452z"/></g><path d="m42.8352203 48.4377632c-.1024399.4034081-.5183563.6463737-.9162178.7694397-.8136292.2578011-1.7728157.3722801-2.4996033-.0669022-2.7764359-1.6777306-2.8517838-4.4979401-2.7671852-4.9979668.0702209-.4335327.089756-.847023.6000748-.9536362.2514572-.0541039.5159645.0106544.7397652.1207924.6492119.3255844 1.0201874 1.0088921 1.336834 1.6573067.3240013.6500015.6606293 1.3491821 1.2855263 1.7159386.2939568.1793671.6307716.2674522.9554558.3761101.3336678.1028938.662571.2278976.9231644.454277.259056.233738.421276.5936318.3421858.9246407z" fill="#fff" opacity=".3"/><g opacity=".3"><path d="m44.153553 38.6839561c-.1119995.0793228-.2240028.1586456-.3360023.2379684-.1471519.1042137-.2943001.2084274-.4414482.312645-.1042023.0737991-.2229118.1512871-.3490677.1315575-.1023254-.0160027-.1859169-.0958824-.2318344-.1887207-.0459175-.0928345-.0598679-.1978607-.0694809-.3009872-.0185623-.1991081-.0152588-.422596.1213608-.5686264.0963593-.1029968.2399216-.1451988.3775711-.1759682.1860504-.0415878.3749962-.0702133.5650063-.0856743.1153336-.009388.2661171-.0386276.3791771.0000191.1037369.0354614.189949.1511078.2123947.256031.0374335.1750145-.0999871.2913208-.2276765.3817558z" fill="#fff"/></g><g><path d="m42.1497231 31.9323444c.8078499.7087231 1.566124 1.5215359 2.1707878 2.4780636.5996704.9565315 1.1101685 1.9973373 1.4917679 3.1124649.3766708 1.1101685.6591759 2.2748489.8425484 3.4593697.1387863.8920975.227993 1.8090019.2527695 2.71595.0049591.0148849.0049591.024807.0049591.0396576 0 .0198441.0049629.0396576 0 .0594711v.0049629c.0247765.0644302.0792847.1239014.1684914.1784134.2329559.1387863.6195183.1387863.8524704 0 .0247765-.0148544.0495491-.0346985.0693932-.0594711.0148544-.0098915.0297356-.0247765.04459-.04459.0198441-.0148811.0396576-.0396576.0495796-.0693932.0098915-.0247726.0148506-.0495491.0148506-.0743523 0-.0148544 0-.0297356-.0049591-.04459.0793152-.9515991.0991287-1.8932457.0644302-2.8547363-.0545082-1.2786903-.208149-2.5573807-.4807281-3.8360405-.2775421-1.2737274-.7136841-2.5325737-1.2886124-3.7517929-.5897827-1.2142563-1.2737312-2.2054844-2.2203369-3.2314072z" fill="#cea03a"/></g><path d="m42.5603943 30.2507324c-.6027908.4975739-.8346786 1.2022228-.5229073 1.5799141.3117676.3776894 1.0497398.286129 1.6525345-.2114429.5986633-.4941635.8284111-1.2014027.5166397-1.5790939-.3117714-.3776894-1.0476036-.2835408-1.6462669.2106227z" fill="#ddb040"/><path d="m35.2309532 52.8918419c.5104942 1.4224052 1.2192192 2.8646278 2.1013947 4.6438904 2.5524178 5.1246223 5.4567032 3.1719055 5.4567032 3.1719055 4.7430229 4.9858665 7.5779152-.1833725 7.5779152-.1833725 4.529911 2.5325737 7.7960129-7.2805595 7.7960129-7.2805595 3.0876617-5.9473572.4410744-11.5725517.4410744-11.5725517-.3915253-.9961891-.9912262-1.7296867-1.6850662-2.2699165.1338234 1.0110703.5253487 2.1013947.6442909 2.8943939.1685219 1.0952835.2725792 2.2005234.2626877 3.3106918-.0248032 2.5523872-.7087517 5.1890526-2.3938179 7.1120338-1.2092972 1.382782-2.8596992 2.314537-4.5943451 2.9290924-4.8223038 1.6999474-10.4574242.8920975-14.6106644-2.0915031-.3171998-.2279625-.6492501-.4708405-.9961854-.6641045z" fill="#dd4a4a"/></g><path d="m46.1294975 43.3321686c-.0344391.1515884.0206451.3100281.1171036.4271317.0964622.1240005.2273598.2066689.3582573.2962341.1997719.1308975.4064407.268692.6475906.3031311.1653366.0206871.3306732-.006897.4960098-.0344391.1929169-.0344391.3789406-.0688782.5718193-.0964622.1308975-.0275383.268692-.0482292.3720055-.1308975.1102524-.0826645.1722336-.2411041.1033554-.3582115l-.034439.0688742c.0275421-.1377907-.0482292-.2824402-.1722298-.3513565-.1171074-.0757751-.261795-.0895653-.3995895-.0757751-.1377945.0137939-.275589.0551262-.4064445.0826683-.2893791.0620232-.5925064.0688782-.8749504 0-.1377907-.0275421-.2824821-.0826683-.3995895-.1653328-.0413322-.0275421-.0826645-.0689201-.1308975-.0895653-.0482292-.0206871-.1102066-.0344391-.1584396-.006897-.0482294.0206872-.0757715.0757714-.0895617.1308976z" fill="#cc4848"/></g></g><g><g><g><g enable-background="new"><g><path d="m39.2439842 25.739336-1.5337143-.8912983-.0257988-7.1783695 1.5337181.8912983z" fill="#005e87"/></g><g><path d="m39.2181892 18.5609665-1.5337181-.8912983 24.8621025-14.417814 1.5337181.8912985z" fill="#3f9ae0"/></g><g><path d="m39.2181892 18.5609665-1.5337181-.8912983 19.0901451-11.0924506 1.5337143.8912987z" fill="#006cb5"/></g><g><path d="m39.2181892 18.5609665-1.5337181-.8912983 10.5544701-6.1643763 1.5337181.8912983z" fill="#3f9ae0"/></g><g><path d="m64.0802917 4.1431527.025795 7.1783691-24.8621025 14.4178142-.025795-7.1783695z" fill="#0074d1"/></g></g></g></g></g><g><g><path d="m41.5755692 21.8523884-.3143501-.182682c.2522163-.1456184.4553947-.3471966.6054649-.5929947l.3143501.182682c-.1500664.2457981-.3532448.4473762-.6054649.5929947z" fill="#b2b0af"/></g><g><path d="m41.0426521 22.1600704-.3143539-.182682.5329208-.3076821.3143502.1826821z" fill="#b2b0af"/></g><g><path d="m41.8803101 19.7678833.3143463.1826897c.139595.0811138.2115784.2531223.2123299.5181541.000782.2758064-.0758972.5401154-.2259521.7906666l-.3143501-.182682c.1500549-.2505512.2267303-.5148602.2259483-.7906666-.0007516-.2650318-.0727311-.4370404-.2123223-.5181618z" fill="#b2b0af"/></g><g><path d="m42.3411179 19.1346779.3143463.1826897c-.0928917-.0539932-.2024002-.0805473-.3293953-.0801849-.2118759.0052738-.4520607.0831108-.7286949.2428265l-.314354-.1826822c.2766342-.1597157.516819-.2375526.7286949-.2428265.1269989-.0003623.2365036.0261918.329403.0801774z" fill="#b2b0af"/></g><g><path d="m40.4501572 20.142355-.314354-.1826821 1.1472168-.6623459.314354.1826821z" fill="#b2b0af"/></g><g><path d="m40.4583969 23.0498905-.3143539-.182682-.0082398-2.9075356.314354.1826821z" fill="#b2b0af"/></g><g><path d="m42.8197594 19.4625492c.1185951.1515827.1762848.3757896.1771049.6656094.000824.2898197-.0554085.5797997-.1727715.8629856-.1173515.2877922-.2796021.5500126-.4908028.7936974-.2112007.2436829-.4510384.4429874-.7276764.6027031l-1.1472168.6623459-.0082397-2.9075356 1.1472168-.6623459c.2766342-.1597157.516819-.2375526.7286949-.2428265.2118874-.0006027.3750916.0737171.4936906.2253666zm-.6387253 1.7968445c.1500549-.2505512.2267342-.5148602.2259521-.7906666-.000782-.2758083-.0787048-.4508762-.2296867-.527607-.1509819-.0766811-.3546257-.0387535-.6068459.1068649l-.532917.307682.0051155 1.8044033.532917-.307682c.2522202-.1456184.4553986-.3471965.605465-.5929946" fill="#fff"/></g><g><path d="m43.4444008 21.3259335-.314354-.1826821-.0082435-2.9075451.3143539.1826821z" fill="#b2b0af"/></g><g><path d="m43.4361572 18.4183884-.3143539-.1826821.5858116-.3382168.3143539.1826821z" fill="#b2b0af"/></g><g><path d="m44.0219688 18.0801716.0082436 2.9075432-.5858116.3382187-.0082436-2.9075451z" fill="#fff"/></g><g><path d="m47.5776215 18.9396191-.314354-.182684-.0066948-2.3606281.314354.1826839z" fill="#b2b0af"/></g><g><path d="m46.7613678 17.0463886-.3143501-.182682-.0015526-.546917.3143539.182684z" fill="#b2b0af"/></g><g><path d="m46.759819 16.4994736-.3143539-.182684 2.2049255-1.273014.314354.182682z" fill="#b2b0af"/></g><g><path d="m48.9647446 15.2264576.0015525.546916-.8095588.4673986.006691 2.3606282-.5858078.3382187-.0066948-2.3606282-.8095589.4673977-.0015488-.546915z" fill="#fff"/></g><g><path d="m45.2084312 19.7643585-.3143539-.1826839 1.379097-.7962208.3143539.1826839z" fill="#b2b0af"/></g><g><path d="m45.20504 18.5676861-.314354-.1826821 1.1756897-.6787853.314354.1826821z" fill="#b2b0af"/></g><g><path d="m44.6282272 20.6424503-.3143539-.182682-.0082436-2.9075432.314354.1826821z" fill="#b2b0af"/></g><g><path d="m44.6199837 17.7349072-.314354-.1826821 1.9120217-1.1039047.3143539.182682z" fill="#b2b0af"/></g><g><path d="m46.5320053 16.6310024.0015221.5375309-1.3302765.7680378.0017891.631115 1.1756897-.6787853.0014839.5235214-1.1756897.6787834.0019073.6731529 1.379097-.7962208.0015374.542223-1.9608384 1.1320896-.0082435-2.9075431z" fill="#fff"/></g><g><path d="m52.1884117 15.4067039-.3143539-.182682.3794632.178916.3143539.182682z" fill="#b2b0af"/></g><g><path d="m51.1354179 16.2441025-.3143539-.182682c.1222534.0042896.2647591-.0358162.4193459-.1250677.252224-.1456213.4634361-.3846083.6336479-.7123308l.3143463.1826916c-.1702042.327714-.3814163.5667-.6336403.7123222-.1545868.0892505-.2970924.1293563-.4193459.1250667z" fill="#b2b0af"/></g><g><path d="m51.821373 14.0176773.3143463.1826906c.0168152.0097599.033268.0207605.049366.0329971l-.3143539-.1826744c-.0160981-.0122442-.0325509-.0232448-.0493584-.0330133z" fill="#b2b0af"/></g><g><path d="m50.9681549 16.1942539-.3143578-.1826763c.049099.0285244.1050339.0452385.1672668.0498428l.3143539.182682c-.0622328-.0046043-.1181677-.0213184-.1672629-.0498485z" fill="#b2b0af"/></g><g><path d="m50.5170326 16.8362408-.3143578-.1826763c-.0705872-.0410309-.1328773-.0963345-.1872063-.1645031l.3143539.182682c.0543291.0681686.1166193.1234722.1872102.1644974z" fill="#b2b0af"/></g><g><path d="m52.1811333 13.3856182.3143463.1826906c-.108242-.0629158-.2339897-.0922966-.3817787-.080328-.1751823.0121679-.3746376.0852194-.5943184.2120514l-.3143539-.182682c.2196808-.126832.4191399-.1998835.5943184-.2120514.1477927-.0119686.2735366.0174112.3817863.0803194z" fill="#b2b0af"/></g><g><path d="m50.3298225 16.6717434-.3143539-.182682c-.1186256-.1609612-.1803894-.3875217-.1811981-.6726465-.000824-.2898159.0594711-.5821476.176796-.8793364.1213951-.2995377.2836189-.5710793.4907227-.8217926.2071152-.2459583.4428825-.4476166.7032394-.5979357l.3143539.182682c-.2603569.1503191-.4961243.3519783-.7032433.5979357-.2071037.2507133-.3693237.5222549-.4907188.8217926-.1173248.2971897-.1776199.5895205-.176796.8793364.0008087.2851247.0625725.5116853.1811981.6726465z" fill="#b2b0af"/></g><g><path d="m51.5193825 13.7000322c.2196808-.126832.419136-.1998835.5943184-.2120514.1792488-.0145159.3260727.0317936.4485817.1249752l-.3771973.620409c-.1715088-.1303654-.3833694-.1204548-.6355934.0251665-.1545906.0892515-.2968674.2088652-.4186859.3587713-.1218185.1499701-.2191505.3138084-.287899.4986763-.0687599.1801758-.100853.3579178-.100338.5402021.0005035.1776562.0335159.3224459.1030693.4227657.0695572.1003189.167511.1561108.2897797.1651554.1222534.0042896.2647591-.0358162.4193459-.1250668.252224-.1456223.4634361-.3846083.6336479-.7123318l.3794632.178916c-.1215515.2434263-.2676468.4541521-.4463959.6463251-.1787453.192173-.3779488.3539886-.5976295.4808197-.2562904.1479702-.4924278.2187653-.7002754.2076855-.2078323-.0064487-.3710747-.0947838-.4937515-.2487068-.1186256-.1609612-.1803894-.3875217-.1811981-.6726465-.000824-.2898159.0594711-.5821466.176796-.8793364.1213951-.2995377.2836151-.5710793.4907188-.8217926.2071188-.2459572.4428862-.4476164.7032431-.5979355z" fill="#fff"/></g><g><path d="m61.7997971 10.7284393-.314354-.182682-.006691-2.3606281.314354.182683z" fill="#b2b0af"/></g><g><path d="m60.9835472 8.8352098-.3143539-.182682-.0015488-.546916.3143539.182682z" fill="#b2b0af"/></g><g><path d="m60.9819984 8.2882938-.3143539-.182682 2.2049255-1.2730145.314354.1826825z" fill="#b2b0af"/></g><g><path d="m63.186924 7.0152798.0015487.546916-.8095588.4673986.0066948 2.3606272-.5858116.3382177-.006691-2.3606271-.8095589.4673976-.0015488-.546916z" fill="#fff"/></g><g><path d="m60.2661095 11.613904-.314354-.182682-.4904747-.5268574.314354.182682z" fill="#b2b0af"/></g><g><path d="m59.7130852 10.5847578-.3143539-.182682c.1749344-.1009989.3090477-.2253094.4023666-.3680897l.3143539.182682c-.0933189.1427803-.2274322.2670908-.4023666.3680897z" fill="#b2b0af"/></g><g><path d="m59.821701 9.2972221.3143349.1826868c.0746498.0433683.1121788.1360807.1126022.2852316.0004654.1636496-.0439453.3110371-.1331863.4515276l-.3143539-.182682c.089241-.1404915.1336517-.287878.1331863-.4515276-.0004234-.1491518-.0379486-.2418642-.1125832-.2852364z" fill="#b2b0af"/></g><g><path d="m59.2371254 10.8595524-.3143539-.1826821.4759597-.2747945.314354.182682z" fill="#b2b0af"/></g><g><path d="m60.2907028 8.6719017.3143463.1826859c-.0765877-.0445156-.1701012-.0646248-.2817345-.0596294-.1629677.0098152-.3583565.0805206-.5821114.2097044l-.3143539-.182682c.2237549-.1291838.4191437-.1998901.5821114-.2097044.1116333-.0049964.2051468.0151137.2817421.0596255z" fill="#b2b0af"/></g><g><path d="m58.6468849 9.6364689-.3143539-.1826821 1.0943184-.6318063.3143539.182682z" fill="#b2b0af"/></g><g><path d="m58.6551247 12.5440044-.3143502-.182682-.0082435-2.9075356.3143539.1826821z" fill="#b2b0af"/></g><g><path d="m60.3244858 10.6437922.5721779.60606-.6305542.3640518-.4904747-.5268574-.0284805.0164433-.508503.2935848.0022926.8087082-.5858192.3382215-.0082397-2.9075356 1.0943184-.6318064c.2237549-.1291838.4191437-.1998892.5821114-.2097044.1670418-.0074749.2935028.0412607.3834343.1438503.0899429.1072779.1352272.268425.1358376.4834175.0006218.2197618-.0436172.4278822-.1326561.6384964-.0890581.205928-.2188951.4026376-.3854448.58307zm-.209034-.4271241c.089241-.1404905.1336517-.287878.1331863-.4515276-.0004616-.1635838-.0455627-.2592773-.1353073-.2964478-.0938225-.0347986-.2281876.0006733-.4031219.1016722l-.4759598.2747946.0028763 1.0143929.4759598-.2747946c.1749344-.1009989.3090477-.2253094.4023666-.3680897" fill="#fff"/></g><g><path d="m57.7764168 13.0513287-.314354-.1826821-.2255172-.4924736.3143539.1826821z" fill="#b2b0af"/></g><g><path d="m56.5608864 12.6153297-.314354-.182682.801426-.4627037.3143539.182682z" fill="#b2b0af"/></g><g><path d="m57.3623123 12.152626-.3143539-.182682-.401825-.8823652.314354.182682z" fill="#b2b0af"/></g><g><path d="m56.6697731 10.7779541-.3143539-.182683.5817375-.335866.3143539.1826821z" fill="#b2b0af"/></g><g><path d="m55.5511513 14.3360863-.314354-.182683 1.1186219-3.5581322.3143539.182683z" fill="#b2b0af"/></g><g><path d="m57.2515106 10.4420872 1.1391869 2.2545853-.6142807.3546562-.2255173-.4924736-1.1756821.6787815-.2219925.7508411-.6020737.3476086 1.1186218-3.5581322zm-.6906242 2.1732425.8014259-.4627037-.401825-.8823652z" fill="#fff"/></g><g><path d="m54.696846 14.8293314-.3143539-.182682-.0033799-1.1919804.314354.182682z" fill="#b2b0af"/></g><g><path d="m54.6918488 13.0670395-.314354-.182682-.0032463-1.1452523.3143539.1826821z" fill="#b2b0af"/></g><g><path d="m54.6886024 11.9217873-.3143539-.1826821.5858116-.3382177.314354.182682z" fill="#b2b0af"/></g><g><path d="m53.5446358 13.7293825-.314354-.182682 1.147213-.662343.314354.182682z" fill="#b2b0af"/></g><g><path d="m52.9555779 12.922349-.314354-.1826821.5858116-.3382187.314354.182683z" fill="#b2b0af"/></g><g><path d="m52.9638214 15.8298931-.3143539-.182683-.0082436-2.9075432.314354.1826821z" fill="#b2b0af"/></g><g><path d="m55.2744141 11.5835695.0082397 2.9075442-.5858078.3382177-.0033798-1.1919804-1.147213.662344.0033798 1.1919794-.5858116.3382187-.0082435-2.9075441.5858116-.3382178.0032463 1.1452513 1.147213-.662343-.0032464-1.1452522z" fill="#fff"/></g></g></g></g></svg>