<?xml version="1.0" encoding="iso-8859-1"?>
<!-- Generator: Adobe Illustrator 19.0.0, SVG Export Plug-In . SVG Version: 6.00 Build 0)  -->
<svg version="1.1" id="Layer_1" xmlns="http://www.w3.org/2000/svg" xmlns:xlink="http://www.w3.org/1999/xlink" x="0px" y="0px"
	 viewBox="0 0 512 512" style="enable-background:new 0 0 512 512;" xml:space="preserve">
<g>
	<path style="fill:#A258CB;" d="M139.531,54.91L94.812,29.091c-1.505-0.869-2.868-0.95-3.853-0.378l-14.188,8.245
		c0.003-0.002,0.007-0.003,0.01-0.005c-0.977,0.562-1.583,1.765-1.589,3.476l-0.113,39.886c-0.009,3.434,2.406,7.618,5.397,9.345
		c1.6,0.924,3.036,0.949,4.03,0.252c-0.06,0.042-0.116,0.088-0.179,0.125l3.511-2.04L87.791,104.6l-0.131,46.104
		c-0.009,3.434,2.406,7.62,5.394,9.346c1.594,0.921,3.026,0.948,4.019,0.259c-0.057,0.039-0.11,0.084-0.17,0.118l9.978-5.799
		l-0.02,7.036c-0.009,3.389,2.295,7.587,5.396,9.473c1.598,0.923,3.032,0.949,4.026,0.257c-0.058,0.041-0.113,0.086-0.175,0.121
		l14.188-8.245c0.972-0.564,1.574-1.766,1.578-3.472l0.13-45.66l11.228-6.524c0.972-0.564,1.574-1.766,1.578-3.472l0.113-39.885
		C144.935,60.818,142.52,56.636,139.531,54.91z"/>
	<path style="fill:#A258CB;" d="M117.285,2.059c-4.173-2.409-7.953-2.633-10.683-1.046L92.413,9.259
		c0.008-0.005,0.019-0.008,0.027-0.013c-2.71,1.56-4.393,4.895-4.407,9.643c-0.027,9.529,6.672,21.133,14.965,25.921
		c4.434,2.561,8.414,2.632,11.172,0.706c-0.162,0.114-0.317,0.241-0.489,0.34l14.188-8.245c2.695-1.566,4.366-4.896,4.38-9.63
		C132.278,18.454,125.576,6.846,117.285,2.059z"/>
</g>
<path id="SVGCleanerId_0" style="fill:#7F33AD;" d="M99.823,112.976c-0.752,0.437-1.219,1.367-1.222,2.687l-0.117,41.29
	c-0.005,1.707-0.607,2.908-1.579,3.473l14.188-8.245c0.972-0.564,1.575-1.766,1.579-3.473l0.117-41.29
	c0.004-1.321,0.47-2.251,1.222-2.687L99.823,112.976z"/>
<path style="fill:#7F33AD;" d="M86.282,52.438c-0.174,0.101-0.281,0.315-0.282,0.621l-0.095,33.506
	c-0.005,1.706-0.607,2.907-1.579,3.472l14.188-8.245c0.972-0.564,1.574-1.765,1.579-3.472l0.095-33.506
	c0.001-0.305,0.108-0.519,0.282-0.621L86.282,52.438z"/>
<path style="fill:#A258CB;" d="M139.531,54.91L94.812,29.091c-1.505-0.869-2.868-0.95-3.853-0.378l-14.188,8.245
	c0.984-0.572,2.348-0.491,3.853,0.378l44.719,25.818c0.905,0.523,1.755,1.272,2.503,2.155l-9.602,5.58
	c-0.174,0.101-0.281,0.315-0.282,0.621l-0.143,50.425l-0.131,46.104c-0.005,1.707-0.607,2.907-1.578,3.472l14.188-8.245
	c0.972-0.564,1.574-1.766,1.578-3.472l0.13-45.66l11.228-6.524c0.972-0.564,1.574-1.766,1.578-3.472l0.113-39.885
	C144.935,60.819,142.52,56.636,139.531,54.91z"/>
<path id="SVGCleanerId_1" style="fill:#943EC7;" d="M125.343,63.155c2.989,1.726,5.404,5.91,5.394,9.344l-0.113,39.885
	c-0.009,3.435-2.44,4.821-5.43,3.095c-3.1-1.885-5.404-6.085-5.393-9.474l0.094-33.376c0.002-0.615-0.43-1.361-0.963-1.669
	c-0.535-0.309-0.968-0.062-0.97,0.553l-0.142,50.425l-0.131,46.104c-0.009,3.435-2.44,4.821-5.43,3.095
	c-3.101-1.886-5.405-6.084-5.396-9.473l0.116-41.162c0.007-2.659-1.861-5.897-4.174-7.233c-2.313-1.335-4.196-0.263-4.204,2.396
	l-0.117,41.29c-0.009,3.434-2.441,4.822-5.43,3.096s-5.404-5.911-5.394-9.346l0.131-46.104l0.143-50.425
	c0.002-0.615-0.43-1.361-0.963-1.669c-0.535-0.309-0.968-0.062-0.97,0.553l-0.095,33.506c-0.009,3.434-2.441,4.82-5.429,3.095
	c-2.991-1.727-5.406-5.911-5.397-9.345l0.113-39.885c0.009-3.434,2.441-4.82,5.431-3.094L125.343,63.155z"/>
<g>
	<path id="SVGCleanerId_0_1_" style="fill:#7F33AD;" d="M99.823,112.976c-0.752,0.437-1.219,1.367-1.222,2.687l-0.117,41.29
		c-0.005,1.707-0.607,2.908-1.579,3.473l14.188-8.245c0.972-0.564,1.575-1.766,1.579-3.473l0.117-41.29
		c0.004-1.321,0.47-2.251,1.222-2.687L99.823,112.976z"/>
</g>
<g>
	<path id="SVGCleanerId_1_1_" style="fill:#943EC7;" d="M125.343,63.155c2.989,1.726,5.404,5.91,5.394,9.344l-0.113,39.885
		c-0.009,3.435-2.44,4.821-5.43,3.095c-3.1-1.885-5.404-6.085-5.393-9.474l0.094-33.376c0.002-0.615-0.43-1.361-0.963-1.669
		c-0.535-0.309-0.968-0.062-0.97,0.553l-0.142,50.425l-0.131,46.104c-0.009,3.435-2.44,4.821-5.43,3.095
		c-3.101-1.886-5.405-6.084-5.396-9.473l0.116-41.162c0.007-2.659-1.861-5.897-4.174-7.233c-2.313-1.335-4.196-0.263-4.204,2.396
		l-0.117,41.29c-0.009,3.434-2.441,4.822-5.43,3.096s-5.404-5.911-5.394-9.346l0.131-46.104l0.143-50.425
		c0.002-0.615-0.43-1.361-0.963-1.669c-0.535-0.309-0.968-0.062-0.97,0.553l-0.095,33.506c-0.009,3.434-2.441,4.82-5.429,3.095
		c-2.991-1.727-5.406-5.911-5.397-9.345l0.113-39.885c0.009-3.434,2.441-4.82,5.431-3.094L125.343,63.155z"/>
</g>
<g style="enable-background:new    ;">
	<path style="fill:#943EC7;" d="M102.998,44.811c-8.293-4.788-14.993-16.392-14.965-25.921c0.027-9.527,6.771-13.373,15.063-8.584
		c8.291,4.787,14.993,16.394,14.965,25.921C118.035,45.756,111.29,49.598,102.998,44.811z"/>
</g>
<g>
	<path style="fill:#A258CB;" d="M212.65,97.125l-44.719-25.818c-1.505-0.869-2.868-0.95-3.853-0.378l-14.188,8.245
		c0.003-0.002,0.007-0.003,0.01-0.005c-0.977,0.562-1.583,1.765-1.589,3.476l-0.113,39.886c-0.009,3.434,2.406,7.618,5.397,9.345
		c1.601,0.925,3.037,0.949,4.032,0.251c-0.06,0.042-0.117,0.089-0.181,0.126l3.511-2.04l-0.047,16.603l-0.131,46.104
		c-0.009,3.434,2.406,7.62,5.394,9.346c1.597,0.923,3.031,0.948,4.026,0.254c-0.059,0.041-0.114,0.086-0.175,0.121l9.978-5.799
		l-0.02,7.036c-0.009,3.389,2.295,7.587,5.396,9.473c1.598,0.923,3.032,0.949,4.026,0.257c-0.059,0.041-0.113,0.086-0.175,0.121
		l14.188-8.245c0.971-0.564,1.574-1.766,1.578-3.472l0.13-45.66l11.228-6.524c0.972-0.564,1.574-1.766,1.578-3.472l0.113-39.885
		C218.055,103.035,215.639,98.851,212.65,97.125z"/>
	<path style="fill:#A258CB;" d="M190.404,44.276c-4.172-2.409-7.953-2.633-10.683-1.046l-14.188,8.245
		c0.008-0.005,0.019-0.008,0.027-0.013c-2.71,1.56-4.393,4.895-4.407,9.643c-0.027,9.529,6.672,21.133,14.965,25.921
		c4.435,2.561,8.415,2.632,11.174,0.705c-0.163,0.114-0.318,0.242-0.49,0.341l14.188-8.245c2.695-1.567,4.366-4.896,4.38-9.63
		C205.397,60.67,198.695,49.063,190.404,44.276z"/>
</g>
<g>
	<path style="fill:#7F33AD;" d="M172.942,155.192c-0.752,0.437-1.219,1.367-1.222,2.687l-0.117,41.29
		c-0.005,1.707-0.607,2.908-1.579,3.473l14.188-8.245c0.972-0.564,1.575-1.766,1.579-3.473l0.117-41.29
		c0.004-1.321,0.47-2.251,1.222-2.687L172.942,155.192z"/>
	<path style="fill:#7F33AD;" d="M159.401,94.653c-0.174,0.101-0.281,0.315-0.282,0.621l-0.095,33.506
		c-0.005,1.706-0.607,2.907-1.579,3.472l14.188-8.245c0.972-0.564,1.574-1.765,1.579-3.472l0.095-33.506
		c0.001-0.305,0.108-0.519,0.282-0.621L159.401,94.653z"/>
</g>
<path style="fill:#A258CB;" d="M212.65,97.125l-44.719-25.818c-1.505-0.869-2.868-0.95-3.853-0.378l-14.188,8.245
	c0.984-0.572,2.348-0.491,3.853,0.378l44.719,25.818c0.905,0.523,1.755,1.272,2.503,2.155l-9.602,5.58
	c-0.174,0.101-0.281,0.315-0.282,0.621l-0.143,50.425l-0.131,46.104c-0.005,1.707-0.607,2.907-1.578,3.472l14.188-8.245
	c0.972-0.564,1.574-1.766,1.578-3.472l0.13-45.66l11.228-6.524c0.972-0.564,1.574-1.766,1.578-3.472l0.113-39.885
	C218.055,103.035,215.639,98.851,212.65,97.125z"/>
<path style="fill:#943EC7;" d="M198.462,105.371c2.989,1.726,5.404,5.91,5.394,9.344l-0.113,39.885
	c-0.009,3.435-2.44,4.821-5.43,3.095c-3.1-1.885-5.404-6.085-5.393-9.474l0.094-33.376c0.002-0.615-0.43-1.361-0.963-1.669
	c-0.535-0.309-0.968-0.062-0.97,0.553l-0.143,50.425l-0.131,46.104c-0.009,3.435-2.44,4.821-5.43,3.095
	c-3.101-1.886-5.405-6.084-5.396-9.473l0.116-41.162c0.007-2.659-1.861-5.897-4.174-7.233c-2.313-1.335-4.196-0.263-4.204,2.396
	l-0.117,41.29c-0.009,3.434-2.441,4.822-5.43,3.096c-2.989-1.726-5.404-5.911-5.394-9.346l0.131-46.104l0.143-50.425
	c0.002-0.615-0.43-1.361-0.963-1.669c-0.535-0.309-0.968-0.062-0.97,0.553l-0.095,33.506c-0.009,3.434-2.441,4.82-5.429,3.095
	c-2.991-1.727-5.406-5.911-5.397-9.345l0.113-39.885c0.009-3.434,2.441-4.82,5.431-3.094L198.462,105.371z"/>
<g style="enable-background:new    ;">
	<path style="fill:#943EC7;" d="M176.117,87.026c-8.293-4.788-14.993-16.392-14.965-25.921c0.027-9.527,6.771-13.373,15.063-8.584
		c8.291,4.787,14.993,16.394,14.965,25.921C191.154,87.972,184.41,91.813,176.117,87.026z"/>
</g>
<g>
	<path style="fill:#A258CB;" d="M285.77,139.34l-44.719-25.818c-1.505-0.869-2.868-0.95-3.853-0.378l-14.188,8.245
		c0.003-0.002,0.007-0.003,0.01-0.005c-0.977,0.562-1.583,1.765-1.589,3.476l-0.113,39.885c-0.009,3.434,2.406,7.618,5.397,9.345
		c1.601,0.925,3.037,0.949,4.032,0.251c-0.061,0.042-0.117,0.089-0.181,0.126l3.511-2.04l-0.047,16.603l-0.131,46.104
		c-0.009,3.434,2.406,7.62,5.394,9.346c1.596,0.922,3.029,0.948,4.023,0.257c-0.058,0.04-0.112,0.085-0.173,0.12l9.978-5.799
		l-0.02,7.036c-0.009,3.389,2.295,7.587,5.395,9.473c1.598,0.923,3.032,0.949,4.026,0.257c-0.058,0.041-0.113,0.086-0.175,0.121
		l14.188-8.245c0.972-0.564,1.574-1.766,1.578-3.472l0.13-45.66l11.228-6.524c0.971-0.564,1.574-1.766,1.578-3.472l0.113-39.885
		C291.174,145.25,288.759,141.066,285.77,139.34z"/>
	<path style="fill:#A258CB;" d="M263.524,86.491c-4.173-2.409-7.953-2.633-10.683-1.046l-14.188,8.245
		c0.008-0.005,0.018-0.008,0.027-0.013c-2.71,1.56-4.393,4.895-4.407,9.643c-0.027,9.529,6.672,21.133,14.965,25.921
		c4.438,2.563,8.42,2.632,11.18,0.701c-0.165,0.115-0.322,0.244-0.495,0.345l14.188-8.245c2.695-1.566,4.366-4.896,4.38-9.63
		C278.517,102.885,271.815,91.278,263.524,86.491z"/>
</g>
<g>
	<path style="fill:#7F33AD;" d="M246.062,197.407c-0.752,0.437-1.219,1.367-1.222,2.687l-0.117,41.29
		c-0.005,1.707-0.607,2.908-1.579,3.473l14.188-8.245c0.972-0.564,1.575-1.766,1.579-3.473l0.117-41.29
		c0.004-1.321,0.47-2.251,1.222-2.687L246.062,197.407z"/>
	<path style="fill:#7F33AD;" d="M232.52,136.869c-0.174,0.101-0.281,0.315-0.282,0.621l-0.095,33.506
		c-0.005,1.706-0.607,2.907-1.579,3.472l14.188-8.245c0.972-0.564,1.574-1.765,1.579-3.472l0.095-33.506
		c0.001-0.305,0.108-0.519,0.282-0.621L232.52,136.869z"/>
</g>
<path style="fill:#A258CB;" d="M285.77,139.34l-44.719-25.818c-1.505-0.869-2.868-0.95-3.853-0.378l-14.188,8.245
	c0.984-0.572,2.348-0.491,3.853,0.378l44.719,25.818c0.905,0.523,1.755,1.272,2.503,2.155l-9.602,5.58
	c-0.174,0.101-0.281,0.315-0.282,0.621l-0.143,50.425l-0.131,46.104c-0.005,1.707-0.607,2.907-1.578,3.472l14.188-8.245
	c0.972-0.564,1.574-1.766,1.578-3.472l0.13-45.66l11.228-6.524c0.972-0.564,1.574-1.766,1.578-3.472l0.113-39.885
	C291.174,145.25,288.759,141.066,285.77,139.34z"/>
<path style="fill:#943EC7;" d="M271.582,147.586c2.989,1.726,5.404,5.91,5.394,9.344l-0.113,39.885
	c-0.009,3.435-2.44,4.821-5.43,3.095c-3.1-1.885-5.404-6.085-5.393-9.474l0.094-33.376c0.002-0.615-0.43-1.361-0.963-1.669
	c-0.535-0.309-0.968-0.062-0.97,0.553l-0.142,50.425l-0.131,46.104c-0.009,3.435-2.44,4.821-5.43,3.095
	c-3.101-1.886-5.405-6.084-5.396-9.473l0.116-41.162c0.007-2.659-1.861-5.897-4.174-7.233c-2.313-1.335-4.196-0.263-4.204,2.396
	l-0.117,41.29c-0.009,3.434-2.441,4.822-5.43,3.096c-2.989-1.726-5.404-5.911-5.394-9.346l0.131-46.104l0.143-50.425
	c0.002-0.615-0.43-1.361-0.963-1.669c-0.535-0.309-0.968-0.062-0.97,0.553l-0.095,33.506c-0.009,3.434-2.441,4.82-5.429,3.095
	c-2.991-1.727-5.406-5.911-5.397-9.345l0.113-39.885c0.009-3.434,2.441-4.82,5.431-3.094L271.582,147.586z"/>
<g style="enable-background:new    ;">
	<path style="fill:#943EC7;" d="M249.238,129.242c-8.293-4.788-14.993-16.392-14.965-25.921c0.027-9.527,6.771-13.373,15.063-8.584
		c8.291,4.787,14.993,16.394,14.965,25.921C264.274,130.187,257.529,134.029,249.238,129.242z"/>
</g>
<g>
	<path style="fill:#A258CB;" d="M358.889,181.557l-44.719-25.818c-1.505-0.869-2.868-0.95-3.853-0.378l-14.188,8.245
		c0.003-0.002,0.007-0.003,0.01-0.005c-0.977,0.562-1.583,1.765-1.589,3.476l-0.113,39.885c-0.009,3.434,2.406,7.618,5.397,9.345
		c1.599,0.924,3.034,0.949,4.029,0.253c-0.059,0.042-0.115,0.088-0.178,0.124l3.511-2.04l-0.047,16.603l-0.131,46.104
		c-0.009,3.434,2.406,7.62,5.394,9.346c1.596,0.922,3.029,0.948,4.023,0.257c-0.058,0.04-0.112,0.085-0.173,0.12l9.978-5.799
		l-0.02,7.036c-0.009,3.389,2.295,7.587,5.396,9.473c1.598,0.923,3.032,0.949,4.026,0.257c-0.059,0.041-0.113,0.086-0.175,0.121
		l14.188-8.245c0.972-0.564,1.574-1.766,1.578-3.472l0.13-45.66l11.228-6.524c0.972-0.564,1.574-1.766,1.578-3.472l0.113-39.885
		C364.294,187.465,361.878,183.281,358.889,181.557z"/>
	<path style="fill:#A258CB;" d="M336.643,128.706c-4.172-2.409-7.953-2.633-10.683-1.046l-14.188,8.245
		c0.008-0.005,0.019-0.008,0.027-0.013c-2.71,1.56-4.394,4.895-4.407,9.643c-0.027,9.529,6.672,21.133,14.965,25.921
		c4.435,2.561,8.415,2.632,11.174,0.705c-0.163,0.114-0.318,0.242-0.49,0.341l14.188-8.245c2.695-1.566,4.366-4.896,4.38-9.63
		C351.636,145.1,344.935,133.493,336.643,128.706z"/>
</g>
<g>
	<path style="fill:#7F33AD;" d="M319.181,239.623c-0.752,0.437-1.219,1.367-1.222,2.687l-0.117,41.289
		c-0.005,1.707-0.607,2.908-1.579,3.473l14.188-8.245c0.972-0.564,1.575-1.766,1.579-3.473l0.117-41.29
		c0.004-1.321,0.47-2.251,1.222-2.687L319.181,239.623z"/>
	<path style="fill:#7F33AD;" d="M305.64,179.085c-0.174,0.101-0.281,0.315-0.282,0.621l-0.095,33.506
		c-0.005,1.706-0.607,2.907-1.579,3.472l14.188-8.245c0.972-0.564,1.574-1.765,1.579-3.472l0.095-33.506
		c0.001-0.305,0.108-0.519,0.282-0.621L305.64,179.085z"/>
</g>
<path style="fill:#A258CB;" d="M358.889,181.557l-44.719-25.818c-1.505-0.869-2.868-0.95-3.853-0.378l-14.188,8.245
	c0.984-0.572,2.348-0.491,3.853,0.378l44.719,25.818c0.905,0.523,1.755,1.272,2.503,2.155l-9.602,5.58
	c-0.174,0.101-0.281,0.315-0.282,0.621l-0.143,50.425l-0.131,46.104c-0.005,1.707-0.607,2.907-1.578,3.472l14.188-8.245
	c0.972-0.564,1.574-1.766,1.578-3.472l0.13-45.66l11.228-6.524c0.972-0.564,1.574-1.766,1.578-3.472l0.113-39.885
	C364.294,187.465,361.878,183.281,358.889,181.557z"/>
<path style="fill:#943EC7;" d="M344.701,189.802c2.989,1.726,5.404,5.91,5.394,9.344l-0.113,39.885
	c-0.009,3.435-2.44,4.821-5.43,3.095c-3.1-1.885-5.404-6.085-5.393-9.474l0.094-33.376c0.002-0.615-0.43-1.361-0.964-1.669
	c-0.535-0.309-0.968-0.062-0.97,0.553l-0.143,50.425l-0.131,46.104c-0.009,3.435-2.44,4.821-5.43,3.095
	c-3.101-1.886-5.405-6.084-5.396-9.473l0.116-41.162c0.007-2.659-1.861-5.897-4.174-7.233c-2.313-1.335-4.196-0.263-4.204,2.396
	l-0.117,41.289c-0.009,3.434-2.441,4.822-5.43,3.096c-2.989-1.726-5.404-5.911-5.394-9.346l0.131-46.104l0.143-50.425
	c0.002-0.615-0.43-1.361-0.964-1.669c-0.535-0.309-0.968-0.062-0.97,0.553l-0.095,33.506c-0.009,3.434-2.441,4.82-5.429,3.095
	c-2.991-1.727-5.406-5.911-5.397-9.345l0.113-39.885c0.009-3.434,2.441-4.82,5.431-3.094L344.701,189.802z"/>
<g style="enable-background:new    ;">
	<path style="fill:#943EC7;" d="M322.357,171.458c-8.293-4.788-14.993-16.392-14.965-25.921c0.027-9.527,6.771-13.373,15.063-8.584
		c8.291,4.787,14.993,16.394,14.965,25.921C337.393,172.402,330.649,176.245,322.357,171.458z"/>
</g>
<g>
	<path style="fill:#A258CB;" d="M432.009,223.772l-44.719-25.818c-1.505-0.869-2.868-0.95-3.853-0.378l-14.188,8.245
		c0.003-0.002,0.007-0.003,0.01-0.005c-0.977,0.562-1.583,1.765-1.589,3.476l-0.113,39.885c-0.009,3.434,2.406,7.618,5.397,9.345
		c1.6,0.924,3.036,0.949,4.03,0.252c-0.06,0.042-0.116,0.088-0.179,0.125l3.511-2.04l-0.047,16.603l-0.131,46.104
		c-0.009,3.434,2.406,7.62,5.394,9.346c1.595,0.922,3.028,0.948,4.021,0.258c-0.057,0.04-0.111,0.085-0.171,0.119l9.978-5.799
		l-0.02,7.036c-0.009,3.389,2.295,7.587,5.396,9.473c1.598,0.923,3.032,0.949,4.026,0.257c-0.058,0.041-0.113,0.086-0.175,0.121
		l14.188-8.245c0.972-0.564,1.574-1.766,1.578-3.472l0.13-45.66l11.228-6.524c0.971-0.564,1.574-1.766,1.578-3.472l0.113-39.885
		C437.413,229.682,434.998,225.498,432.009,223.772z"/>
	<path style="fill:#A258CB;" d="M409.763,170.923c-4.173-2.409-7.953-2.633-10.683-1.046l-14.188,8.245
		c0.008-0.005,0.018-0.008,0.027-0.013c-2.71,1.56-4.393,4.895-4.407,9.643c-0.027,9.529,6.672,21.133,14.965,25.921
		c4.435,2.561,8.415,2.632,11.173,0.705c-0.163,0.114-0.318,0.242-0.49,0.341l14.188-8.245c2.695-1.566,4.366-4.896,4.38-9.63
		C424.755,187.317,418.055,175.71,409.763,170.923z"/>
</g>
<g>
	<path style="fill:#7F33AD;" d="M392.301,281.839c-0.752,0.437-1.219,1.367-1.222,2.687l-0.117,41.289
		c-0.005,1.707-0.607,2.908-1.579,3.473l14.188-8.245c0.972-0.564,1.575-1.766,1.579-3.473l0.117-41.289
		c0.004-1.321,0.47-2.251,1.222-2.687L392.301,281.839z"/>
	<path style="fill:#7F33AD;" d="M378.759,221.3c-0.174,0.101-0.281,0.315-0.282,0.621l-0.095,33.506
		c-0.005,1.706-0.607,2.907-1.579,3.472l14.188-8.245c0.972-0.564,1.574-1.765,1.579-3.472l0.095-33.506
		c0.001-0.305,0.108-0.519,0.282-0.621L378.759,221.3z"/>
</g>
<path style="fill:#A258CB;" d="M432.009,223.772l-44.719-25.818c-1.505-0.869-2.868-0.95-3.853-0.378l-14.188,8.245
	c0.984-0.572,2.348-0.491,3.853,0.378l44.719,25.818c0.905,0.523,1.755,1.272,2.503,2.155l-9.602,5.58
	c-0.174,0.101-0.281,0.315-0.282,0.621l-0.143,50.425l-0.131,46.104c-0.005,1.707-0.607,2.907-1.578,3.472l14.188-8.245
	c0.972-0.564,1.574-1.766,1.578-3.472l0.13-45.66l11.228-6.524c0.972-0.564,1.574-1.766,1.578-3.472l0.113-39.885
	C437.413,229.682,434.998,225.498,432.009,223.772z"/>
<path style="fill:#943EC7;" d="M417.821,232.017c2.989,1.726,5.404,5.91,5.394,9.344l-0.113,39.885
	c-0.009,3.435-2.44,4.821-5.43,3.095c-3.1-1.885-5.404-6.085-5.393-9.474l0.094-33.376c0.002-0.615-0.43-1.361-0.964-1.669
	c-0.535-0.309-0.968-0.062-0.97,0.553l-0.143,50.425l-0.131,46.104c-0.009,3.435-2.44,4.821-5.43,3.095
	c-3.101-1.886-5.405-6.084-5.396-9.473l0.116-41.162c0.007-2.659-1.861-5.897-4.174-7.233c-2.313-1.335-4.196-0.263-4.204,2.396
	l-0.117,41.29c-0.009,3.434-2.441,4.822-5.43,3.097c-2.989-1.726-5.404-5.911-5.394-9.346l0.131-46.104l0.143-50.425
	c0.002-0.615-0.43-1.361-0.964-1.669c-0.535-0.309-0.968-0.062-0.97,0.553l-0.095,33.506c-0.009,3.434-2.441,4.82-5.429,3.095
	c-2.991-1.727-5.406-5.911-5.397-9.345l0.113-39.885c0.009-3.434,2.441-4.82,5.431-3.094L417.821,232.017z"/>
<g style="enable-background:new    ;">
	<path style="fill:#943EC7;" d="M395.477,213.673c-8.293-4.788-14.993-16.392-14.965-25.921c0.027-9.527,6.771-13.373,15.063-8.584
		c8.291,4.787,14.993,16.394,14.965,25.921C410.513,214.619,403.768,218.46,395.477,213.673z"/>
</g>
<g>
	<path style="fill:#FFA834;" d="M139.049,226.169L94.33,200.351c-1.505-0.869-2.868-0.95-3.853-0.378l-14.188,8.245
		c0.003-0.002,0.007-0.003,0.01-0.005c-0.977,0.562-1.583,1.765-1.589,3.476l-0.113,39.886c-0.009,3.434,2.406,7.618,5.397,9.345
		c1.6,0.924,3.036,0.949,4.03,0.252c-0.06,0.042-0.116,0.088-0.179,0.125l3.511-2.04l-0.047,16.603l-0.131,46.104
		c-0.009,3.434,2.406,7.62,5.394,9.346c1.598,0.923,3.033,0.948,4.027,0.253c-0.059,0.041-0.115,0.087-0.177,0.124l9.978-5.799
		l-0.02,7.036c-0.009,3.389,2.295,7.587,5.396,9.473c1.598,0.923,3.032,0.949,4.026,0.257c-0.059,0.041-0.113,0.086-0.175,0.121
		l14.188-8.245c0.972-0.564,1.574-1.766,1.578-3.472l0.13-45.66l11.228-6.524c0.972-0.564,1.574-1.766,1.578-3.472l0.113-39.885
		C144.453,232.079,142.038,227.895,139.049,226.169z"/>
	<path style="fill:#FFA834;" d="M116.803,173.32c-4.172-2.409-7.953-2.633-10.683-1.046l-14.188,8.245
		c0.008-0.005,0.018-0.008,0.027-0.013c-2.71,1.56-4.393,4.895-4.407,9.643c-0.027,9.529,6.672,21.133,14.965,25.921
		c4.435,2.561,8.415,2.632,11.174,0.705c-0.163,0.114-0.318,0.242-0.49,0.341l14.188-8.245c2.695-1.566,4.366-4.896,4.38-9.63
		C131.795,189.714,125.095,178.107,116.803,173.32z"/>
</g>
<g>
	<path style="fill:#F18700;" d="M99.341,284.236c-0.752,0.437-1.219,1.367-1.222,2.687l-0.117,41.289
		c-0.005,1.707-0.607,2.908-1.579,3.473l14.188-8.245c0.972-0.564,1.575-1.766,1.579-3.473l0.117-41.29
		c0.004-1.321,0.47-2.251,1.222-2.687L99.341,284.236z"/>
	<path style="fill:#F18700;" d="M85.799,223.698c-0.174,0.101-0.281,0.315-0.282,0.621l-0.095,33.506
		c-0.005,1.706-0.607,2.907-1.579,3.472l14.188-8.245c0.972-0.564,1.574-1.765,1.579-3.472l0.095-33.506
		c0.001-0.305,0.108-0.519,0.282-0.621L85.799,223.698z"/>
</g>
<path style="fill:#FFA834;" d="M139.049,226.17L94.33,200.352c-1.505-0.869-2.868-0.95-3.853-0.378l-14.188,8.245
	c0.984-0.572,2.348-0.491,3.853,0.378l44.719,25.818c0.905,0.523,1.755,1.272,2.503,2.155l-9.602,5.58
	c-0.174,0.101-0.281,0.315-0.282,0.621l-0.143,50.425l-0.131,46.104c-0.005,1.707-0.607,2.907-1.578,3.472l14.188-8.245
	c0.972-0.564,1.574-1.766,1.578-3.472l0.13-45.66l11.228-6.524c0.972-0.564,1.574-1.766,1.578-3.472l0.113-39.885
	C144.453,232.079,142.038,227.895,139.049,226.17z"/>
<path style="fill:#FF9911;" d="M124.861,234.415c2.989,1.726,5.404,5.91,5.394,9.344l-0.113,39.885
	c-0.009,3.435-2.44,4.821-5.43,3.095c-3.1-1.885-5.404-6.085-5.393-9.474l0.094-33.376c0.002-0.615-0.43-1.361-0.963-1.669
	c-0.535-0.309-0.968-0.062-0.97,0.553l-0.143,50.425l-0.131,46.104c-0.009,3.435-2.44,4.821-5.43,3.095
	c-3.101-1.886-5.405-6.084-5.396-9.473l0.116-41.162c0.007-2.659-1.861-5.897-4.174-7.233c-2.313-1.336-4.196-0.263-4.204,2.396
	l-0.117,41.29c-0.009,3.434-2.441,4.822-5.43,3.097c-2.989-1.726-5.404-5.911-5.394-9.346l0.131-46.104l0.143-50.425
	c0.002-0.615-0.43-1.361-0.963-1.669c-0.535-0.309-0.968-0.062-0.97,0.553l-0.095,33.506c-0.009,3.434-2.441,4.82-5.429,3.095
	c-2.991-1.727-5.406-5.911-5.397-9.345l0.113-39.885c0.009-3.434,2.441-4.82,5.431-3.094L124.861,234.415z"/>
<g style="enable-background:new    ;">
	<path style="fill:#FF9911;" d="M102.517,216.07c-8.293-4.788-14.993-16.392-14.965-25.921c0.027-9.527,6.771-13.373,15.063-8.584
		c8.291,4.787,14.993,16.394,14.965,25.921C117.553,217.016,110.808,220.857,102.517,216.07z"/>
</g>
<g>
	<path style="fill:#FFA834;" d="M212.168,268.385l-44.719-25.818c-1.505-0.869-2.868-0.95-3.853-0.378l-14.188,8.245
		c0.003-0.002,0.007-0.003,0.01-0.005c-0.977,0.562-1.583,1.765-1.589,3.476l-0.113,39.885c-0.009,3.434,2.406,7.618,5.397,9.345
		c1.6,0.924,3.035,0.949,4.03,0.252c-0.06,0.042-0.116,0.088-0.179,0.125l3.511-2.04l-0.047,16.603l-0.131,46.104
		c-0.009,3.434,2.406,7.62,5.394,9.346c1.598,0.923,3.033,0.948,4.027,0.253c-0.059,0.041-0.115,0.087-0.177,0.124l9.978-5.799
		l-0.02,7.036c-0.009,3.389,2.295,7.587,5.396,9.473c1.598,0.923,3.032,0.949,4.026,0.257c-0.058,0.041-0.113,0.086-0.175,0.121
		l14.188-8.245c0.972-0.564,1.574-1.766,1.578-3.472l0.13-45.66l11.228-6.524c0.971-0.564,1.574-1.766,1.578-3.472l0.113-39.885
		C217.573,274.294,215.157,270.11,212.168,268.385z"/>
	<path style="fill:#FFA834;" d="M189.922,215.535c-4.172-2.409-7.953-2.633-10.683-1.046l-14.188,8.245
		c0.008-0.005,0.018-0.008,0.027-0.013c-2.71,1.56-4.393,4.895-4.407,9.643c-0.027,9.529,6.672,21.133,14.965,25.921
		c4.434,2.561,8.414,2.632,11.172,0.706c-0.162,0.114-0.317,0.241-0.489,0.34l14.188-8.245c2.695-1.567,4.366-4.896,4.38-9.63
		C204.915,231.929,198.214,220.322,189.922,215.535z"/>
</g>
<g>
	<path style="fill:#F18700;" d="M172.46,326.452c-0.752,0.437-1.219,1.367-1.222,2.687l-0.117,41.29
		c-0.005,1.707-0.607,2.908-1.579,3.473l14.188-8.245c0.972-0.564,1.575-1.766,1.579-3.473l0.117-41.29
		c0.004-1.321,0.47-2.251,1.222-2.687L172.46,326.452z"/>
	<path style="fill:#F18700;" d="M158.919,265.914c-0.174,0.101-0.281,0.315-0.282,0.621l-0.095,33.506
		c-0.005,1.706-0.607,2.907-1.579,3.472l14.188-8.245c0.972-0.564,1.574-1.765,1.579-3.472l0.095-33.506
		c0.001-0.305,0.108-0.519,0.282-0.621L158.919,265.914z"/>
</g>
<path style="fill:#FFA834;" d="M212.168,268.385l-44.719-25.818c-1.505-0.869-2.868-0.95-3.853-0.378l-14.188,8.245
	c0.984-0.572,2.348-0.491,3.853,0.378l44.719,25.818c0.905,0.523,1.755,1.272,2.503,2.155l-9.602,5.58
	c-0.174,0.101-0.281,0.315-0.282,0.621l-0.143,50.425l-0.131,46.104c-0.005,1.707-0.607,2.907-1.578,3.472l14.188-8.245
	c0.972-0.564,1.574-1.766,1.578-3.472l0.13-45.66l11.228-6.524c0.972-0.564,1.574-1.766,1.578-3.472l0.113-39.885
	C217.573,274.294,215.157,270.11,212.168,268.385z"/>
<path style="fill:#FF9911;" d="M197.98,276.631c2.989,1.726,5.404,5.91,5.394,9.344l-0.113,39.885
	c-0.009,3.435-2.44,4.821-5.43,3.095c-3.1-1.885-5.404-6.085-5.393-9.474l0.094-33.376c0.002-0.615-0.43-1.361-0.963-1.669
	c-0.535-0.309-0.968-0.062-0.97,0.553l-0.143,50.425l-0.131,46.104c-0.009,3.435-2.44,4.821-5.43,3.095
	c-3.101-1.886-5.405-6.084-5.396-9.473l0.116-41.162c0.007-2.659-1.861-5.897-4.174-7.233c-2.313-1.335-4.196-0.263-4.204,2.396
	l-0.117,41.29c-0.009,3.434-2.441,4.822-5.43,3.097c-2.989-1.726-5.404-5.911-5.394-9.346l0.131-46.104l0.143-50.425
	c0.002-0.615-0.43-1.361-0.963-1.669c-0.535-0.309-0.968-0.062-0.97,0.553l-0.095,33.506c-0.009,3.434-2.441,4.82-5.429,3.095
	c-2.991-1.727-5.406-5.911-5.397-9.345l0.113-39.885c0.009-3.434,2.441-4.82,5.431-3.094L197.98,276.631z"/>
<g style="enable-background:new    ;">
	<path style="fill:#FFA834;" d="M165.051,222.735l14.188-8.245c2.73-1.587,6.511-1.362,10.683,1.046
		c8.291,4.787,14.993,16.394,14.965,25.921c-0.014,4.734-1.685,8.064-4.38,9.63l-14.188,8.245c2.695-1.566,4.366-4.896,4.38-9.63
		c0.027-9.527-6.674-21.135-14.965-25.921C171.561,221.372,167.781,221.149,165.051,222.735z"/>
	<path style="fill:#FF9911;" d="M175.636,258.287c-8.293-4.788-14.993-16.392-14.965-25.921c0.027-9.527,6.771-13.373,15.063-8.584
		c8.291,4.787,14.993,16.394,14.965,25.921C190.672,259.231,183.928,263.074,175.636,258.287z"/>
</g>
<g>
	<path style="fill:#FFA834;" d="M285.289,310.601l-44.719-25.818c-1.505-0.869-2.868-0.95-3.853-0.378l-14.188,8.245
		c0.003-0.002,0.007-0.003,0.01-0.005c-0.977,0.562-1.583,1.765-1.589,3.476l-0.113,39.885c-0.009,3.434,2.406,7.618,5.397,9.345
		c1.598,0.923,3.033,0.949,4.027,0.255c-0.059,0.041-0.114,0.087-0.176,0.123l3.511-2.04l-0.047,16.603l-0.131,46.104
		c-0.009,3.434,2.406,7.62,5.394,9.346c1.598,0.923,3.033,0.948,4.027,0.253c-0.059,0.041-0.115,0.087-0.177,0.124l9.978-5.799
		l-0.02,7.036c-0.009,3.389,2.295,7.587,5.395,9.473c1.595,0.921,3.027,0.949,4.02,0.26c-0.057,0.039-0.11,0.084-0.169,0.117
		l14.188-8.245c0.972-0.564,1.574-1.766,1.578-3.472l0.13-45.66l11.228-6.524c0.972-0.564,1.574-1.766,1.579-3.472l0.113-39.885
		C290.692,316.51,288.277,312.327,285.289,310.601z"/>
	<path style="fill:#FFA834;" d="M263.042,257.752c-4.172-2.409-7.953-2.633-10.683-1.046l-14.188,8.245
		c0.008-0.005,0.019-0.008,0.027-0.013c-2.71,1.56-4.393,4.895-4.407,9.643c-0.027,9.529,6.672,21.133,14.965,25.921
		c4.434,2.561,8.414,2.632,11.172,0.706c-0.163,0.114-0.317,0.241-0.489,0.34l14.188-8.245c2.695-1.566,4.366-4.896,4.38-9.63
		C278.034,274.145,271.334,262.539,263.042,257.752z"/>
</g>
<g>
	<path style="fill:#F18700;" d="M245.58,368.668c-0.752,0.437-1.219,1.367-1.222,2.687l-0.117,41.29
		c-0.005,1.707-0.607,2.908-1.579,3.473l14.188-8.245c0.972-0.564,1.575-1.766,1.579-3.473l0.117-41.29
		c0.004-1.321,0.47-2.251,1.222-2.687L245.58,368.668z"/>
	<path style="fill:#F18700;" d="M232.038,308.129c-0.174,0.101-0.281,0.315-0.282,0.621l-0.095,33.507
		c-0.005,1.706-0.607,2.907-1.579,3.472l14.188-8.245c0.972-0.564,1.574-1.765,1.579-3.472l0.095-33.506
		c0.001-0.306,0.108-0.519,0.282-0.621L232.038,308.129z"/>
</g>
<path style="fill:#FFA834;" d="M285.289,310.601l-44.719-25.818c-1.505-0.869-2.868-0.95-3.853-0.378l-14.188,8.245
	c0.984-0.572,2.348-0.491,3.853,0.378l44.719,25.818c0.905,0.523,1.755,1.272,2.503,2.155l-9.602,5.58
	c-0.174,0.101-0.281,0.315-0.282,0.621l-0.143,50.425l-0.131,46.104c-0.005,1.707-0.607,2.907-1.578,3.472l14.188-8.245
	c0.972-0.564,1.574-1.766,1.578-3.472l0.13-45.66l11.228-6.524c0.972-0.564,1.574-1.766,1.578-3.472l0.113-39.885
	C290.692,316.51,288.277,312.327,285.289,310.601z"/>
<path style="fill:#FF9911;" d="M271.1,318.846c2.989,1.726,5.404,5.91,5.394,9.344l-0.113,39.885
	c-0.009,3.435-2.44,4.821-5.43,3.095c-3.1-1.885-5.404-6.085-5.393-9.474l0.094-33.376c0.002-0.615-0.43-1.361-0.964-1.669
	c-0.535-0.309-0.968-0.062-0.97,0.553l-0.142,50.425l-0.131,46.104c-0.009,3.435-2.44,4.821-5.43,3.095
	c-3.101-1.886-5.405-6.084-5.396-9.473l0.116-41.162c0.007-2.659-1.861-5.897-4.174-7.233s-4.196-0.263-4.204,2.396l-0.117,41.289
	c-0.009,3.434-2.441,4.822-5.43,3.097c-2.989-1.726-5.404-5.911-5.394-9.346l0.131-46.104l0.143-50.425
	c0.002-0.615-0.43-1.361-0.963-1.669c-0.535-0.309-0.968-0.062-0.97,0.553l-0.095,33.507c-0.009,3.434-2.441,4.819-5.429,3.095
	c-2.991-1.727-5.406-5.911-5.397-9.345l0.113-39.885c0.009-3.434,2.441-4.819,5.431-3.094L271.1,318.846z"/>
<g style="enable-background:new    ;">
	<path style="fill:#FFA834;" d="M238.17,264.95l14.188-8.245c2.73-1.587,6.511-1.363,10.683,1.046
		c8.291,4.787,14.993,16.394,14.965,25.921c-0.014,4.734-1.685,8.064-4.38,9.63l-14.188,8.245c2.695-1.567,4.366-4.896,4.38-9.63
		c0.027-9.527-6.674-21.135-14.965-25.921C244.681,263.588,240.9,263.364,238.17,264.95z"/>
	<path style="fill:#FF9911;" d="M248.756,300.502c-8.293-4.788-14.993-16.392-14.965-25.921c0.027-9.527,6.771-13.373,15.063-8.584
		c8.291,4.787,14.993,16.394,14.965,25.921C263.792,301.448,257.047,305.289,248.756,300.502z"/>
</g>
<g>
	<path style="fill:#FF6342;" d="M358.408,352.816l-44.719-25.818c-1.505-0.869-2.868-0.95-3.853-0.378l-14.188,8.245
		c0.003-0.002,0.007-0.003,0.01-0.005c-0.977,0.562-1.583,1.765-1.589,3.476l-0.113,39.885c-0.009,3.434,2.406,7.618,5.397,9.345
		c1.598,0.923,3.033,0.949,4.027,0.254c-0.059,0.041-0.114,0.087-0.176,0.123l3.511-2.04l-0.047,16.603l-0.131,46.104
		c-0.009,3.434,2.406,7.62,5.394,9.346c1.595,0.922,3.027,0.948,4.021,0.258c-0.057,0.04-0.111,0.085-0.171,0.119l9.978-5.799
		l-0.02,7.035c-0.009,3.389,2.294,7.587,5.396,9.473c1.598,0.923,3.032,0.949,4.026,0.257c-0.058,0.041-0.113,0.086-0.175,0.121
		l14.188-8.245c0.971-0.564,1.574-1.766,1.578-3.472l0.13-45.66l11.228-6.524c0.972-0.564,1.574-1.766,1.578-3.472l0.113-39.885
		C363.813,358.726,361.397,354.542,358.408,352.816z"/>
	<path style="fill:#FF6342;" d="M336.162,299.967c-4.173-2.409-7.953-2.633-10.683-1.046l-14.188,8.245
		c0.008-0.005,0.019-0.008,0.027-0.013c-2.71,1.56-4.393,4.895-4.407,9.643c-0.027,9.529,6.672,21.133,14.965,25.921
		c4.434,2.561,8.414,2.632,11.172,0.706c-0.162,0.114-0.317,0.241-0.489,0.34l14.188-8.245c2.695-1.566,4.366-4.896,4.38-9.63
		C351.154,316.361,344.453,304.754,336.162,299.967z"/>
</g>
<g>
	<path style="fill:#FF3502;" d="M318.7,410.883c-0.752,0.437-1.219,1.367-1.222,2.687l-0.117,41.289
		c-0.005,1.707-0.607,2.908-1.579,3.473l14.188-8.245c0.972-0.564,1.575-1.766,1.579-3.473l0.117-41.29
		c0.004-1.321,0.47-2.251,1.222-2.687L318.7,410.883z"/>
	<path style="fill:#FF3502;" d="M305.158,350.345c-0.174,0.101-0.281,0.315-0.282,0.621l-0.095,33.506
		c-0.005,1.706-0.607,2.907-1.579,3.472l14.188-8.245c0.972-0.564,1.574-1.765,1.579-3.472l0.095-33.507
		c0.001-0.305,0.108-0.519,0.282-0.621L305.158,350.345z"/>
</g>
<path style="fill:#FF6342;" d="M358.408,352.816l-44.719-25.818c-1.505-0.869-2.868-0.95-3.853-0.378l-14.188,8.245
	c0.984-0.572,2.348-0.491,3.853,0.378l44.719,25.818c0.905,0.523,1.755,1.272,2.503,2.155l-9.602,5.58
	c-0.174,0.101-0.281,0.315-0.282,0.621l-0.143,50.425l-0.131,46.104c-0.005,1.707-0.607,2.907-1.578,3.472l14.188-8.245
	c0.972-0.564,1.574-1.766,1.578-3.472l0.13-45.66l11.228-6.524c0.972-0.564,1.574-1.766,1.578-3.472l0.113-39.885
	C363.813,358.726,361.397,354.542,358.408,352.816z"/>
<path style="fill:#FF5023;" d="M344.219,361.062c2.989,1.726,5.404,5.91,5.394,9.344l-0.113,39.885
	c-0.009,3.435-2.44,4.821-5.43,3.095c-3.1-1.885-5.404-6.085-5.393-9.474l0.094-33.376c0.002-0.615-0.43-1.361-0.964-1.669
	c-0.535-0.309-0.968-0.062-0.97,0.553l-0.143,50.425l-0.131,46.104c-0.009,3.435-2.44,4.821-5.43,3.095
	c-3.101-1.886-5.405-6.084-5.396-9.473l0.116-41.162c0.007-2.659-1.861-5.897-4.174-7.233c-2.313-1.336-4.196-0.263-4.204,2.396
	l-0.117,41.29c-0.009,3.434-2.441,4.822-5.43,3.097c-2.989-1.726-5.404-5.911-5.394-9.346l0.131-46.104l0.143-50.425
	c0.002-0.615-0.43-1.361-0.964-1.669c-0.535-0.309-0.968-0.062-0.97,0.553l-0.095,33.506c-0.009,3.434-2.441,4.82-5.429,3.095
	c-2.991-1.727-5.406-5.911-5.397-9.345l0.113-39.885c0.009-3.434,2.441-4.819,5.431-3.094L344.219,361.062z"/>
<g style="enable-background:new    ;">
	<path style="fill:#FF5023;" d="M321.875,342.717c-8.293-4.788-14.993-16.392-14.965-25.921c0.027-9.527,6.771-13.373,15.063-8.584
		c8.291,4.787,14.993,16.394,14.965,25.921C336.911,343.663,330.166,347.504,321.875,342.717z"/>
</g>
<g>
	<path style="fill:#FF6342;" d="M431.528,395.032l-44.719-25.818c-1.505-0.869-2.868-0.95-3.853-0.378l-14.188,8.245
		c0.003-0.002,0.006-0.003,0.01-0.005c-0.977,0.562-1.583,1.765-1.589,3.476l-0.113,39.885c-0.009,3.434,2.406,7.618,5.397,9.345
		c1.6,0.924,3.036,0.949,4.03,0.252c-0.06,0.042-0.116,0.088-0.179,0.125l3.511-2.04l-0.047,16.603l-0.131,46.104
		c-0.009,3.434,2.406,7.62,5.394,9.346c1.597,0.923,3.031,0.948,4.026,0.254c-0.059,0.041-0.114,0.086-0.175,0.121l9.978-5.799
		l-0.02,7.036c-0.009,3.389,2.295,7.587,5.396,9.473c1.598,0.923,3.032,0.949,4.026,0.257c-0.058,0.041-0.113,0.086-0.175,0.121
		l14.188-8.245c0.972-0.564,1.574-1.766,1.578-3.472l0.13-45.66l11.228-6.524c0.972-0.564,1.574-1.766,1.578-3.472l0.113-39.885
		C436.932,400.941,434.517,396.757,431.528,395.032z"/>
	<path style="fill:#FF6342;" d="M409.282,342.182c-4.173-2.409-7.953-2.633-10.683-1.046l-14.188,8.245
		c0.008-0.005,0.019-0.008,0.027-0.013c-2.71,1.56-4.393,4.895-4.407,9.643c-0.027,9.529,6.672,21.133,14.965,25.921
		c4.434,2.561,8.414,2.632,11.172,0.706c-0.163,0.114-0.317,0.241-0.489,0.34l14.188-8.245c2.695-1.566,4.366-4.896,4.38-9.63
		C424.273,358.576,417.573,346.969,409.282,342.182z"/>
</g>
<g>
	<path style="fill:#FF3502;" d="M391.82,453.098c-0.752,0.437-1.219,1.367-1.222,2.687l-0.117,41.289
		c-0.005,1.707-0.607,2.908-1.579,3.473l14.188-8.245c0.972-0.564,1.575-1.766,1.579-3.473l0.117-41.289
		c0.004-1.321,0.47-2.251,1.222-2.687L391.82,453.098z"/>
	<path style="fill:#FF3502;" d="M378.277,392.561c-0.174,0.101-0.281,0.315-0.282,0.621l-0.095,33.507
		c-0.005,1.706-0.607,2.907-1.579,3.472l14.188-8.245c0.972-0.564,1.574-1.765,1.579-3.472l0.095-33.506
		c0.001-0.306,0.108-0.519,0.282-0.621L378.277,392.561z"/>
</g>
<path style="fill:#FF6342;" d="M431.528,395.032l-44.719-25.818c-1.505-0.869-2.868-0.95-3.853-0.378l-14.188,8.245
	c0.984-0.572,2.348-0.491,3.853,0.378l44.719,25.818c0.905,0.523,1.755,1.272,2.503,2.155l-9.602,5.58
	c-0.174,0.101-0.281,0.315-0.282,0.621l-0.143,50.425l-0.131,46.104c-0.005,1.707-0.607,2.907-1.578,3.472l14.188-8.245
	c0.972-0.564,1.574-1.766,1.578-3.472l0.13-45.66l11.228-6.524c0.972-0.564,1.574-1.766,1.578-3.472l0.113-39.885
	C436.932,400.941,434.517,396.757,431.528,395.032z"/>
<path style="fill:#FF5023;" d="M417.339,403.278c2.989,1.726,5.404,5.91,5.394,9.344l-0.113,39.885
	c-0.009,3.435-2.44,4.821-5.43,3.095c-3.1-1.885-5.404-6.085-5.393-9.474l0.094-33.376c0.002-0.615-0.43-1.361-0.964-1.669
	c-0.535-0.309-0.968-0.062-0.97,0.553l-0.143,50.425l-0.131,46.104c-0.009,3.435-2.44,4.821-5.43,3.095
	c-3.101-1.886-5.405-6.084-5.396-9.473l0.116-41.162c0.007-2.659-1.861-5.897-4.174-7.233c-2.313-1.336-4.196-0.263-4.204,2.396
	l-0.117,41.29c-0.009,3.434-2.441,4.822-5.43,3.097c-2.989-1.726-5.404-5.911-5.394-9.346l0.131-46.104l0.143-50.425
	c0.002-0.615-0.43-1.361-0.964-1.669c-0.535-0.309-0.968-0.062-0.97,0.553l-0.095,33.507c-0.009,3.434-2.441,4.819-5.429,3.095
	c-2.991-1.727-5.406-5.911-5.397-9.345l0.113-39.885c0.009-3.434,2.441-4.82,5.431-3.094L417.339,403.278z"/>
<g style="enable-background:new    ;">
	<path style="fill:#FF6342;" d="M384.409,349.382l14.188-8.245c2.73-1.587,6.511-1.362,10.683,1.046
		c8.291,4.787,14.993,16.394,14.965,25.921c-0.014,4.734-1.685,8.064-4.38,9.63l-14.188,8.245c2.695-1.567,4.366-4.896,4.38-9.63
		c0.027-9.527-6.674-21.135-14.965-25.921C390.92,348.019,387.139,347.795,384.409,349.382z"/>
	<path style="fill:#FF5023;" d="M394.995,384.934c-8.293-4.788-14.993-16.392-14.965-25.921c0.027-9.527,6.771-13.373,15.063-8.584
		c8.291,4.787,14.993,16.394,14.965,25.921C410.032,385.878,403.286,389.721,394.995,384.934z"/>
</g>
<g>
</g>
<g>
</g>
<g>
</g>
<g>
</g>
<g>
</g>
<g>
</g>
<g>
</g>
<g>
</g>
<g>
</g>
<g>
</g>
<g>
</g>
<g>
</g>
<g>
</g>
<g>
</g>
<g>
</g>
</svg>
