<svg id="Layer_1" enable-background="new 0 0 51 51" height="512" viewBox="0 0 51 51" width="512" xmlns="http://www.w3.org/2000/svg"><g><g><path d="m44.3015 47.16485c-.45927 0-.83154-.37226-.83154-.83154v-6.0009c0-.45927.37226-.83154.83154-.83154s.83154.37226.83154.83154v6.0009c-.00001.45927-.37227.83154-.83154.83154z" fill="#5b5e71"/></g><g><g><path d="m27.04844 47.6392c-.6218.00011-1.24301-.14362-1.73755-.43097l-14.5189-8.4984c-.39628-.23201-.52957-.74128-.29756-1.13768.23178-.39628.74117-.52957 1.13768-.29755l14.5167 8.49701c.46913.2725 1.33175.27203 1.80703-.00255l13.09898-7.56269c.03004-.01728.0551-.03387.0754-.04895-.01856-.01357-.04083-.02831-.06728-.04362l-14.5189-8.49828c-.39628-.23201-.52957-.74128-.29756-1.13767.2319-.39616.7414-.52922 1.13767-.29756l14.51658 8.49689c.60637.35231.95496.89267.95415 1.48117-.00081.59105-.35382 1.1335-.96854 1.48836l-13.09898 7.56269c-.49637.28653-1.11805.4298-1.73892.4298zm14.15859-9.41068h.00232z" fill="#5b5e71"/></g><g><path d="m11.70033 32.54084c-.28746 0-.56692-.14907-.72098-.41588-.22958-.39767-.09327-.90624.3044-1.13593l15.27573-8.81939c.39779-.22958.90624-.09327 1.13593.3044.22958.39767.09327.90624-.3044 1.13593l-15.27573 8.81939c-.13097.07552-.27389.11148-.41495.11148z" fill="#5b5e71"/></g></g><g><path d="m26.97524 29.72943c-.45927 0-.83154-.37226-.83154-.83153v-18.805c0-.45927.37226-.83153.83154-.83153.45927 0 .83153.37226.83153.83153v18.805c.00001.45926-.37226.83153-.83153.83153z" fill="#5b5e71"/></g><g><g><g><path d="m13.08744 26.83364.00632 2.05889c0 .24632.16103.48945.48313.67577l24.58661 14.28903c.65051.37578 1.70206.37578 2.35256 0l8.49132-4.90091c.32841-.18945.49262-.43893.49262-.68523l-.00632-2.06205c0 .24948-.16419.49894-.49261.6884l-8.49132 4.90091c-.65051.37578-1.70204.37578-2.35254 0l-24.58663-14.28904c-.32209-.1863-.48314-.43261-.48314-.67577z" fill="#c44"/></g></g><g><g><path d="m13.57835 26.14741c-.65121.37598-.65464.98593-.00766 1.36192l24.58734 14.2886c.64899.37715 1.70201.37715 2.35322.00117l8.48999-4.9017c.65323-.37714.65667-.98709.00768-1.36424l-24.58734-14.2886c-.64698-.37599-1.70001-.37599-2.35324.00115z" fill="#e74c3c"/></g></g></g><g><path d="m11.21206 38.7226c-.45927 0-.83153-.37226-.83153-.83154v-18.80487c0-.45927.37226-.83154.83153-.83154s.83153.37226.83153.83154v18.80487c0 .45927-.37226.83154-.83153.83154z" fill="#5b5e71"/></g><g><g><g enable-background="new"><g><g><path d="m8.82531 19.21895c.09174-.05342.21832-.04529.35882.03484.27754.16025.50282.55043.50166.86977 0 .15793-.0569.26941-.14747.32283l25.51726-14.85639c.09058-.05226.14632-.16374.14632-.32283.00116-.31934-.22296-.70836-.50166-.86861-.13935-.08129-.26709-.08826-.35882-.036z" fill="#ecf0f1"/></g></g><g><g><path d="m9.1839 19.25402c-.27803-.16052-.5049-.03209-.50581.28739s.22449.70903.50252.86955.50416.03166.50506-.28782c.00091-.31948-.22374-.7086-.50177-.86912z" fill="#ecf0f1"/></g></g></g></g><g><g><g><path d="m27.8947 3.31297c.65935-.38417 1.57245-.33057 2.58202.25195 2.00308 1.15788 3.62019 3.96326 3.61483 6.26474-.00357 1.14537-.40741 1.94946-1.05962 2.32828l1.16904-.67484c.65042-.37881 1.05424-1.18469 1.05782-2.33007.00714-2.30148-1.61176-5.10686-3.61482-6.26296-1.00958-.58251-1.92267-.63612-2.58202-.25373z" fill="#2e414c"/></g></g><g><g><path d="m30.476 3.56551c-2.00447-1.15728-3.63434-.22716-3.64087 2.07482-.00653 2.30329 1.61275 5.108 3.61723 6.26529 2.00333 1.15663 3.63206.22715 3.63859-2.07614.00652-2.30199-1.61162-5.10735-3.61495-6.26397z" fill="#384f63"/></g></g><g><g><path d="m28.04314 4.98078c.43845-.25616 1.04504-.22001 1.71451.16658 1.3295.76689 2.40597 2.63384 2.40126 4.16134-.00157.75904-.2703 1.29335-.70403 1.54636l1.02813-.59508c.43216-.25145.70089-.78575.70403-1.54636.00472-1.5275-1.07333-3.39287-2.40283-4.16134-.66789-.38659-1.27606-.42116-1.71452-.16658z" fill="#30b265"/></g><g><path d="m29.75749 5.14693c-1.32944-.76755-2.41458-.14916-2.41891 1.37846-.00433 1.52763 1.07376 3.39496 2.4032 4.16251s2.41357.14858 2.41791-1.37904c.00432-1.52763-1.07276-3.39438-2.4022-4.16193z" fill="#2ecc71"/></g></g><g><g><path d="m28.35115 6.56877c.22368-.129.53376-.11125.87342.08521.67696.39055 1.22611 1.3409 1.22374 2.11964-.00119.38581-.13847.6592-.3586.78702l.50749-.29537c.22131-.12782.35742-.40002.3586-.78702.00237-.77756-.54559-1.72791-1.22255-2.11964-.34085-.19646-.64974-.21421-.87342-.08402z" fill="#525566"/></g><g><g><path d="m29.22502 6.6539c-.67703-.39089-1.22968-.07595-1.23188.70201-.0022.77797.54685 1.72897 1.22388 2.11985.67704.39089 1.22892.07552 1.23113-.70245.00221-.77796-.54609-1.72852-1.22313-2.11941z" fill="#5b5e71"/></g></g></g></g><g><g enable-background="new"><g><g><path d="m29.22543 7.6082c-.13936-.08128-.26709-.08825-.35882-.03599l-20.5853 11.98444v1.64202l21.29946-12.39902c.09058-.05225.14632-.16373.14632-.32282.00115-.31935-.22297-.70837-.50166-.86863z" fill="#ecf0f1"/></g></g></g></g><g><g><g><path d="m3.75781 17.30701c.65935-.38417 1.57245-.33057 2.58202.25195 2.00308 1.15788 3.62019 3.96326 3.61483 6.26474-.00358 1.14537-.40741 1.94946-1.05962 2.32828l1.16904-.67484c.65042-.37881 1.05424-1.18469 1.05782-2.33006.00714-2.30148-1.61175-5.10686-3.61482-6.26296-1.00958-.58251-1.92267-.63612-2.58202-.25373z" fill="#2e414c"/></g></g><g><g><path d="m6.33911 17.55954c-2.00448-1.15728-3.63434-.22716-3.64087 2.07482-.00653 2.30329 1.61275 5.108 3.61722 6.26529 2.00333 1.15663 3.63206.22715 3.63859-2.07614.00653-2.30198-1.61161-5.10734-3.61494-6.26397z" fill="#384f63"/></g></g><g><g><path d="m3.90625 18.97481c.43845-.25616 1.04504-.22001 1.71451.16658 1.3295.7669 2.40597 2.63384 2.40126 4.16134-.00157.75904-.2703 1.29336-.70403 1.54637l1.02813-.59508c.43216-.25145.70089-.78575.70403-1.54636.00472-1.5275-1.07333-3.39287-2.40283-4.16134-.66789-.38659-1.27606-.42116-1.71452-.16658z" fill="#30b265"/></g><g><path d="m5.6206 19.14096c-1.32944-.76755-2.41458-.14916-2.41891 1.37846-.00433 1.52763 1.07376 3.39496 2.4032 4.16251s2.41357.14858 2.4179-1.37904-1.07276-3.39437-2.40219-4.16193z" fill="#2ecc71"/></g></g><g><g><path d="m4.21426 20.56281c.22368-.12901.53376-.11125.87342.08521.67696.39055 1.22611 1.3409 1.22374 2.11965-.00118.38581-.13847.6592-.3586.78702l.50749-.29537c.22131-.12782.35742-.40002.3586-.78702.00237-.77756-.54559-1.72791-1.22255-2.11964-.34085-.19646-.64974-.21421-.87342-.08402z" fill="#525566"/></g><g><g><path d="m5.08813 20.64793c-.67704-.39089-1.22968-.07595-1.23188.70201-.00221.77797.54685 1.72897 1.22388 2.11985.67704.39089 1.22892.07552 1.23113-.70245.0022-.77795-.54609-1.72852-1.22313-2.11941z" fill="#5b5e71"/></g></g></g></g><g><g enable-background="new"><g><g><path d="m1.64722 23.40302c.09174-.05342.21832-.04529.35882.03484.27754.16025.50282.55043.50166.86977 0 .15793-.0569.26941-.14747.32283l3.01373-1.73111c.09058-.05226.14632-.16374.14632-.32283.00116-.31934-.22296-.70836-.50166-.86861-.13935-.08129-.26709-.08825-.35882-.036z" fill="#ecf0f1"/></g></g><g><g><path d="m2.00581 23.43808c-.27803-.16052-.5049-.03209-.5058.28739s.22449.70903.50252.86955.50416.03166.50506-.28782-.22375-.7086-.50178-.86912z" fill="#e0e2e2"/></g></g></g></g></g><g><path d="m41.80318 48.60785c-.28746 0-.56693-.14907-.72098-.41589-.22958-.39767-.09327-.90624.3044-1.13593l4.99825-2.88578c.39779-.22934.90624-.09327 1.13594.3044.22958.39767.09327.90624-.3044 1.13593l-4.99825 2.88578c-.13097.07553-.27389.11149-.41496.11149z" fill="#5b5e71"/></g></g></svg>