<svg id="Layer_1" enable-background="new 0 0 50 50" height="512" viewBox="0 0 50 50" width="512" xmlns="http://www.w3.org/2000/svg"><g><g><g><g><g><g enable-background="new"><path d="m27.06568 24.156c-2.56284-1.47963-4.88504-1.61623-6.56243-.64134l-4.07583 2.3684c1.67738-.97454 3.99959-.83794 6.56243.64169 5.09991 2.94444 9.21712 10.08141 9.20054 15.93569-.00825 2.90808-1.03472 4.95458-2.69079 5.91676l4.07583-2.3684c1.65607-.96254 2.68254-3.00868 2.69079-5.91677.01658-5.85463-4.10063-12.99159-9.20054-15.93603z" fill="#ed5d71"/><g><path d="m22.98984 26.52465c5.09991 2.94444 9.21713 10.08135 9.20053 15.93596-.0166 5.8549-4.16075 8.21663-9.26066 5.2722-5.09529-2.94177-9.21253-10.07321-9.19593-15.92812.0166-5.85461 4.16077-8.22181 9.25606-5.28004z" fill="#e34454"/></g></g></g><g><g enable-background="new"><path d="m22.74679 30.97708c-1.53625-.88694-2.92825-.96882-3.93372-.38444l-1.1034.64117c1.00548-.58417 2.39748-.50229 3.93372.38465 3.05705 1.76499 5.52503 6.04311 5.51509 9.55235-.00495 1.7432-.62024 2.96993-1.61294 3.5467l1.1034-.64117c.9927-.57698 1.608-1.8035 1.61294-3.54669.00995-3.50947-2.45804-7.78758-5.51509-9.55257z" fill="#ed5d71"/><g><path d="m21.64339 31.6184c3.05705 1.76498 5.52504 6.04307 5.51509 9.55251-.00995 3.50961-2.49408 4.9253-5.55113 3.16032-3.05428-1.76339-5.52228-6.0382-5.51233-9.54781.00995-3.50944 2.49409-4.92841 5.54837-3.16502z" fill="#fe91ab"/></g></g></g></g><g><path d="m21.63132 35.06295c.77431.44705 1.40345 1.53393 1.40092 2.42638-.00174.61481-.30593.96855-.74548.98745l.53387 3.18716-2.41445-1.39398.55251-2.55993c-.44035-.52691-.73919-1.22881-.73745-1.84362.00254-.89246.63342-1.25187 1.41008-.80346z" fill="#373f51"/><g><path d="m20.40619 40.26998 2.41443 1.39407-.42695-2.54895z" fill="#4c5671"/></g></g></g><g><g><g enable-background="new"><g><path d="m21.68926 18.47682 1.5113-.86952c-.89823.51308-1.4543 1.62486-1.46848 3.20796l-.01427 2.9872-1.5113.88414.01427-3.00182c-.00001-1.56848.57024-2.68027 1.46848-3.20796z" fill="#b4bed7"/></g><g><path d="m28.09321 16.50545-1.51436.88021c3.25732 2.59652 5.72121 7.32023 5.71 11.27032l1.5144-.88021c.01116-3.95008-2.45273-8.67343-5.71004-11.27032z" fill="#e3e7f0"/></g><g><path d="m33.8056 27.77063v.00772l-.02261 7.41973-1.51289.88058.01507-7.41973c.00753-1.88941-.57204-3.95156-1.52042-5.87846v-.03785l1.50535-.86551c.94838 1.93461 1.5355 3.99676 1.5355 5.89352z" fill="#b4bed7"/></g></g></g></g><g><g><g enable-background="new"><g><path d="m23.58134 16.90027 1.59145-.92485.26203 1.19782-1.59145.92485z" fill="#9da9c1"/></g><g><path d="m23.8854 16.6113 1.59145-.92485-.30406.28897-1.59145.92485z" fill="#8796af"/></g><g><path d="m23.47253 15.71529 1.51349-.87948.49083.85064-1.59145.92485z" fill="#b4bed7"/></g><g><path d="m23.84337 18.09809 1.59145-.92485.27362.16429-1.66942.97023z" fill="#b4bed7"/></g></g></g></g><g fill="#d3dbea"><path d="m23.58137 16.89465.30403-.28336-.41286-.89601c-3.03423-.83978-5.28813 1.03089-5.30192 4.7906l-.0164 4.49538c.86725-.29438 2.04538-.31092 2.04538-.31092l.02458-2.99811c.00694-2.69538 1.63229-4.02028 3.81484-3.38448l-.19565-.20967z"/><path d="m26.57788 17.38603-.44686-.04851.57884 1.25838-.30403.28887.56272 1.29844c1.90967 1.91514 3.27611 4.81596 3.26972 7.29341l-.0164 5.08892c.76145.88939 1.43723 2.08089 2.04538 3.51348l.02458-7.42451c.00721-3.94715-2.45907-8.66939-5.71395-11.26848z"/></g><g><path d="m21.74745 15.10447-1.51436.88021c.88012-.51159 1.99526-.61265 3.23853-.26902l1.51441-.87984c-1.24323-.344-2.35842-.24294-3.23858.26865z" fill="#e3e7f0"/></g></g><g><path d="m21.24172 1.0835c-.07528-.07756-.20216-.1055-.36226-.06501-.31821.08098-.6474.40147-.73515.71626-.04355.15625-.01953.28171.05489.3587l9.80657 10.13825.45579-1.61614z" fill="#f9d5b4"/><g><g enable-background="new"><path d="m31.85319 9.26481c-.32804-2.25516-.53483-4.25664-1.37983-5.9659-.00853-.01782-.01786-.03112-.02739-.04092-.01688-.01751-.01676-.02771-.03218-.02376l-.73392.18869c.01541-.00395.03303.00161.04999.01884.00953.0098.01878.02338.02731.04119.845 1.70926.60686 3.82486.93494 6.08002.28616 1.9935-.1863 3.6503-1.22226 4.2863-.93092.56486-1.6285 1.64691-2.4851 1.86702l.71618-.18405c.85659-.2201 2.22167-1.47375 3.15255-2.03862 1.03598-.63598 1.28587-2.23531.99971-4.22881z" fill="#4c5671"/><path d="m30.69212 9.56298c-.32807-2.25517-.08994-4.37076-.93494-6.08002-.00853-.01782-.01778-.03139-.02731-.04119-.05301-.05437-.1129.00757-.09001.11212.4838 2.06319-.33928 4.40469-.38099 6.10387-.01954.76328-.2052 1.41448-.53127 1.86308-.7268.99587-1.31123 3.57658-2.48431 3.94421-.05922.02123-.05234.14942-.00037.20261.0088.009.01887.01599.03017.01977 1.21938.41007 2.02245-1.12561 3.19677-1.83815 1.03596-.636 1.50841-2.2928 1.22226-4.2863z" fill="#373f51"/></g></g><g><g enable-background="new"><g><path d="m31.70055 12.20434c.3182-.0808.50498.10879.41717.42348-.08783.31474-.41696.63533-.73516.71613s-.50498-.10879-.41715-.42353c.08781-.3147.41694-.63529.73514-.71608z" fill="#ddae8e"/></g></g></g><g><g enable-background="new"><path d="m31.7076 11.90241c-.07533-.07773-.20218-.10556-.3623-.0649-.31821.08082-.64734.4014-.73515.71606-.04362.15634-.0195.28186.05488.35859l.35525.36688c-.07435-.07679-.0985-.20225-.05488-.35859.08781-.31473.41695-.63531.73516-.71613.16013-.04065.28697-.01283.3623.06491z" fill="#f9d5b4"/></g></g></g></g></svg>