<svg id="Layer_1" enable-background="new 0 0 67 67" height="512" viewBox="0 0 67 67" width="512" xmlns="http://www.w3.org/2000/svg"><g><g><g><g><g><path d="m52.8271103 2.3355865c-.4391365-.263422-1.0538712-.2107813-1.7389488.1757119l-40.1191521 23.1510399c-1.3348818.7904472-2.4415197 2.6874237-2.4415197 4.2331791l.0702476 28.2531986.0001097.0141602 4.3280239 2.5012207v-.414978l.5861626-28.1658173c0-1.5457516.1902905-2.8710365 1.5427427-3.6439133l39.8145513-23.3824568c.6675034-.4039731 1.259449-.7561083 1.6809959-.5277557z" fill="#434240"/></g><g><path d="m10.9690351 25.6623058c-1.3349257.7904739-2.441577 2.6874714-2.441577 4.2331829l.0144911 5.8262596 4.8350859 2.8486557.1350126-6.4871483c0-1.5457096.1902933-2.8709984 1.5427103-3.6438522l8.2610073-4.8515568-4.3304691-2.5513744z" fill="#494846"/><path d="m8.5977411 58.1487274.0001278.0141106 4.3279782 2.5012626v-.4149932l.1686525-8.1026307-4.5183354-2.6620025z" fill="#2d2c2b"/><path d="m8.5761642 49.4844742 4.5183354 2.6620025.2825355-13.5760726-4.8350858-2.8486557z" fill="#383736"/><path d="m52.827137 2.3355649c-.4391861-.2633848-1.0539207-.2107844-1.739006.175739l-11.5541459 6.6674185 4.1517906 2.4461098 11.1835213-6.5678993c.6675262-.4040146 1.2594719-.7561307 1.6810417-.5277915z" fill="#494846"/><path d="m18.9852962 21.0364723 4.3304692 2.5513745 10.3885765-6.1010704-4.2393742-2.4976893z" fill="#2d2c2b"/><path d="m29.4649677 14.9890871 4.2393742 2.4976893 9.9814339-5.8619442-4.1517907-2.4461098z" fill="#383736"/></g><g><g><g><g><g><g><path d="m32.2100868 51.3365173-3.3311176-1.9358368 8.344923-4.8179435 3.3311195 1.9358329z" fill="#4e5161"/></g></g><g><g enable-background="new"><g><g><g><path d="m25.5129089 59.0779266.0035362 2.6166496c.0025978.922905.3983364 1.6777229 1.1674519 2.1246834 2.4146538 1.403244 8.7406406-.0111694 14.1848888-3.1544075 4.0181999-2.3199081 6.4218369-4.2366867 6.4168167-6.0073624l-.0034828-3.315403c.0049858 1.7706566-2.3986549 4.3862534-6.4168549 6.7061615-5.4442482 3.1432381-11.7702332 4.5576515-14.1848869 3.1544075-.7691154-.4469604-1.164854-1.2017783-1.167469-2.1247291z" fill="#383736"/></g></g></g><g><g><g><path d="m47.2821388 51.3420868c.0049782 1.7706642-2.3986816 4.3862572-6.4168663 6.7061653-2.8895111 1.6682739-6.0225525 2.8427849-8.692215 3.3742142v2.6173134c2.6704292-.5311089 5.8049393-1.7059364 8.6957245-3.3749123 4.0181847-2.319973 6.4218445-4.2366943 6.4168015-6.0074234z" fill="#2d2c2b"/></g></g></g><g><g><g><path d="m47.2821388 51.3420868c.0039558 1.4134445-1.5464783 3.3643799-4.2080345 5.2744026v2.6974297c2.6637268-1.7313461 4.2154999-3.2423935 4.2114792-4.6564751z" fill="#21201f"/></g></g></g><g><g><g><path d="m30.9555225 52.2893333c-5.4442501 3.1432381-6.6704731 7.5213089-4.2751446 8.9133224 2.4146538 1.403244 8.7406387-.0111694 14.1848869-3.1544075 5.424736-3.1319733 7.9067535-6.8028641 5.4920998-8.2061081-2.3953285-1.3920135-9.9771079-.68478-15.4018421 2.4471932z" fill="#434240"/></g></g></g></g></g><g><g><g><path d="m32.2434807 59.1522064-2.3201389-1.34832-.0333958-10.0121269 2.3201408 1.34832z" fill="#b6b9ba"/></g></g></g><g><g><g><path d="m40.5550117 44.3221359.0333939 10.0121269-8.3449249 4.8179436-.0333939-10.0121269z" fill="#cfd2d3"/></g></g></g><g><g><path d="m24.6669064 55.5658035 14.341299-8.3342514 2.564003 1.6863442-14.3412971 8.3342514z" fill="#eaf0f6"/></g></g><g><g><path d="m57.2824631 34.3308983-44.9818678 25.9872131-.0806684-28.2307396c0-1.5457497 1.1057777-3.4447212 2.4576378-4.2349815l40.1211986-23.1492906c1.3518448-.7902603 2.4576378-.159225 2.4576378 1.3865957z" fill="#21201f"/></g><g><path d="m14.0136423 32.0818977c0-.9038486.7625494-2.2095547 1.5691824-2.6810379l39.880146-23.0101967.0248146 26.9057083-41.396779 23.9236794z" fill="#fff"/></g></g></g></g></g></g><g><g><path d="m8.6152906 60.9240494c0 .7728806.2634401 1.3174019.7201452 1.5983963l.9472389.5267334 2.7448092 1.6290665c-.4391336-.2459412-.0840244-.8633232-.101613-1.6362v-2.3779488l-4.3280239-2.5012207z" fill="#d6d4d2"/></g></g><g><g><path d="m57.2831764 34.3318672.0079002 2.7865143c.0044174 1.5583916-1.0902405 3.4543571-2.4464493 4.2373657l-40.0663719 23.132328c-1.3635721.787262-2.4653854.1594315-2.4698029-1.3989601l-.0079002-2.7865181z" fill="#e9e8e6"/></g></g><g><g><path d="m36.0048141 49.3781395c0 .8301888-.5811615 1.8055458-1.2867088 2.2206421-.705677.4150925-1.2867088.0830917-1.2867088-.7263222 0-.8301926.5602608-1.8263206 1.2867088-2.2414169.7055473-.3943215 1.2867088-.0621948 1.2867088.747097z" fill="#555"/></g></g></g></g><g><g><g enable-background="new"><g><path d="m60.884304 28.332531 2.0505066 1.1907616c-1.5949554-.9268951-3.8039665-.7958527-6.2427025.612154l-2.0505142-1.1907578c2.4387398-1.4080048 4.6477509-1.5390472 6.2427101-.6121578z" fill="#81d672"/></g><g><path d="m50.5126228 50.9056931-2.0505142-1.1907501c-1.575325-.9154854-2.5523453-2.8621407-2.5601845-5.6273766-.015789-5.5687981 3.8978271-12.3474388 8.7396698-15.1428776l2.0505142 1.1907578c-4.8418427 2.7954388-8.7554588 9.5740757-8.7396736 15.1428738.0078392 2.7652358.9848633 4.7118911 2.5601883 5.6273727z" fill="#6dcb60"/></g><g><path d="m50.4763451 50.8572922-1.9790802-1.1279564c-1.5634422-.9767036-2.5401459-2.8329163-2.6379356-5.6664276l2.0774689 1.2257462c-.0000001 2.7357215.9767035 4.6897239 2.5395469 5.5686378z" fill="#81d672"/></g><g><path d="m56.6921082 30.1354465c4.8463593-2.7980499 8.7854996-.5532017 8.8012848 5.0155964.0157776 5.5636902-3.8977661 12.347393-8.7441292 15.145443-4.8418427 2.7954369-8.7810555.5455246-8.7968292-5.0181656-.0157853-5.5687981 3.8978309-12.347435 8.7396736-15.1428738z" fill="#3db542"/></g></g></g></g><g><g><path d="m60.6151886 33.4636955c2.16576 1.2295074 2.181282 5.2592316.0295601 8.9814072-1.0308571 1.7855186-2.3915253 3.2324066-3.8443108 4.0853348l.0034904 1.2308426-2.4230309-.6227608 2.4156761-3.4163857.0034752 1.2261124c1.0875549-.637352 2.1039696-1.7154198 2.8770943-3.0592766 1.6158218-2.7987137 1.6031342-5.8286591-.023262-6.7601891z" fill="#fff"/></g><g><path d="m56.7816849 32.6680527 2.4229965.622776-2.4156723 3.4163857-.0037422-1.3204231c-.0260544.0144958-.0521049.0292816-.0780754.0442734-1.1154137.6439857-2.1508293 1.7360039-2.9303322 3.0908165-1.6199265 2.8057938-1.6154213 5.8404617.0109596 6.7672882l-.9612923 1.6697884c-2.1657639-1.2294769-2.1731033-5.2639236-.0213776-8.9861336 1.0416336-1.8088112 2.4156647-3.2613678 3.8868637-4.1107635.0309753-.0178871.0618172-.0354042.092907-.0527763z" fill="#fff"/></g></g><g><g><g enable-background="new"><g><path d="m33.3853455 5.9814658 2.6268387 1.5265708c-.2470741-.1436038-.5886497-.124433-.9638481.0921869l-2.6268463-1.5265574c.3751945-.2166195.7167701-.2357907.9638557-.0922003z" fill="#f25a5a"/></g><g><path d="m4.5872102 47.2463112-2.6268663-1.5265388c-.2450348-.1424255-.3976727-.4455223-.3988954-.8768082l2.626848 1.5265579c.0012224.431282.1538604.7343826.3989137.8767891z" fill="#f25a5a"/></g><g><path d="m4.1882963 46.3695221-2.626848-1.5265579-.054884-19.3594113 2.6268481 1.526558z" fill="#f25a5a"/></g><g><path d="m5.4853835 24.6684036-2.626848-1.5265579 29.5629542-17.0681796 2.6268463 1.5265574z" fill="#cc4848"/></g><g><path d="m4.1334124 27.0101109-2.6268482-1.5265579c-.0024288-.8567162.6063467-1.9112206 1.3519713-2.3417072l2.626848 1.5265579c-.7456245.4304866-1.3544001 1.4849891-1.3519711 2.3417072z" fill="#c44141"/></g><g><path d="m35.048336 7.6002235c.7455711-.4304557 1.3583794-.081234 1.3608093.7754831l.0548859 19.3594093c.0024529.8658657-.6063766 1.9203396-1.3519478 2.3507957l-2.71278 1.5662231.0191994 6.77215-5.9207191-3.3649063-20.9486533 12.0947125c-.7456245.4304886-1.3583794.081295-1.3608341-.7845688l-.054884-19.3594112c-.002429-.8567181.6063466-1.9112206 1.3519711-2.3417072z" fill="#dd4a4a"/></g></g></g><g><g><path d="m30.2453003 17.3725586c1.7644958-1.0187302 3.1988182-.2013378 3.2045555 1.8231411.0057564 2.0305901-1.4192581 4.4957523-3.183754 5.5144844l-8.4823322 4.8972778c-1.7644978 1.0187321-3.1988125.2044048-3.2045689-1.8261833-.0028744-1.0137634.3506184-2.1354122.9280453-3.1324902.57477-.9955444 1.3734741-1.869585 2.2557201-2.378952z" fill="#fff"/></g><g><g fill="#21201f"><path d="m26.6178455 22.8438873.9049549-.5171795v.5889817l-.8905754.5170917.6320286.3447285-.359106.6320286-.6320286-.3591061v1.0198937l-.5170918.3015918v-1.019804l-.6177387 1.0773163-.3733959-.2011204.6320286-1.0916958-.8906632.5170918v-.5888939l.8906632-.5170917-.6320286-.3591061.3591041-.617651.6320305.3591061v-1.0198937l.5027123-.3016796v1.0342713l.6320305-1.0916958.359106.2011203z"/><path d="m22.1936378 25.4006748.9049531-.5170917v.5888939l-.8905755.5171794.6320305.3447285-.359106.6320286-.6320286-.3591061v1.0198059l-.5170918.3016797v-1.0342694l-.617651 1.0916958-.3734855-.2010326.6320305-1.0916958-.8905754.5170898v-.5888939l.8905754-.5171795-.6320305-.359106.359106-.617651.6320305.3591061v-1.019804l.5027123-.3016816v1.0341835l.6320305-1.091608.359106.2010326z"/><path d="m31.0419674 20.2870102.904953-.5170899v.5888939l-.8905754.5171795.6320305.3447266-.3591061.6320305-.6320305-.3591061v1.019804l-.5170917.3016815v-1.0342712l-.617651 1.0916958-.3734837-.2010327.6320286-1.0916957-.8905754.5170917v-.5888939l.8905754-.5171795-.6320286-.359106.3591061-.617651.6320286.3591041v-1.019804l.5027141-.3016796v1.0341816l.6320286-1.091608.3591061.2010326z"/></g></g></g><g><g><path d="m11.6017189 32.1142845c.6484213-.3743668 1.1688671-.0710182 1.1709795.6740913.0012674.447052-.1803923.945446-.4684916 1.3560333l.418169 1.7125359-2.25772 1.3034935.436512-2.2127724c-.2836275-.0737114-.4733505-.3576889-.474618-.8047409-.0021123-.7451057.5208322-1.6508598 1.1751691-2.0286407z" fill="#21201f"/></g><g><path d="m15.2381639 27.7079849c.5423298-.3131142.9799986-.0569382.9817667.5662136l.0190868 6.7329388c.0017662.6231804-.4330225 1.3830452-.9753513 1.6961594l-7.291882 4.2099686c-.5482445.3165283-.985827.0603294-.9875937-.5628471l-.0190878-6.7329407c-.0017667-.6231537.4329352-1.3829918.9811797-1.699522l.4126348-.2382355 1.1199741-.6466179 4.2265759-2.4402142 1.1200619-.6466675zm-2.515809 8.1489601-.4181652-1.7125359c.2880983-.4105911.4697618-.9089813.4684944-1.3560448-.0021124-.7450943-.5225563-1.0484638-1.1709852-.6740952-.6543226.3777733-1.1772633 1.2835426-1.1751509 2.0286369.0012674.4470634.1909866.7310333.4745989.8047676l-.4365082 2.2127609z" fill="#ffd651"/></g><g><path d="m11.5733538 24.199398c1.7802401-1.0278225 3.2409735-.2089233 3.2467928 1.843462l.0053959 1.9033661-1.1200657.6466694-.005434-1.9169178c-.0037832-1.3344002-.9559011-1.8702412-2.1230593-1.1963825-1.1612415.6704426-2.1072941 2.3021927-2.1035109 3.6365948l.005434 1.9169178-1.1199856.6466236-.0053959-1.9033661c-.0058183-2.0523854 1.4395896-4.5491448 3.2198287-5.5769673z" fill="#21201f"/></g></g></g></g></g></svg>