<svg height="512pt" viewBox="-78 -62 512 512" width="512pt" xmlns="http://www.w3.org/2000/svg"><g fill-rule="evenodd"><path d="m270.574219 122.519531-11.355469-52.824219-.003906-.011718c-.652344-3.039063 1.675781-6.121094 5.1875-6.878906 3.511718-.753907 6.902344 1.097656 7.554687 4.140624l.003907.007813 39.511718 183.777344c.640625 3.03125-1.679687 6.101562-5.191406 6.855469-3.511719.757812-6.890625-1.089844-7.550781-4.117188l-.003907-.007812s-13.519531-62.890626-13.519531-62.890626l-.003906-.023437s-1.101563-5.117187-1.101563-5.117187l-10.257812-47.707032-.003906-.019531s-3.261719-15.171875-3.261719-15.171875zm0 0" fill="#303a59"/><path d="m294.660156 234.53125c6.882813 2.824219 10.324219.816406 12.75-2.675781l4.058594 18.878906c.640625 3.03125-1.679688 6.097656-5.191406 6.855469-3.503906.753906-6.886719-1.089844-7.546875-4.117188v-.015625zm0 0" fill="#c4d6dc"/><path d="m282.445312 261.371094.214844-20.523438 26.664063 5.007813 124.261719 41.277343.175781 30.5625-26.777344 15.589844zm0 0" fill="#03a9f4"/><path d="m282.660156 240.859375 26.550782-25.597656 124.4375 71.839843-26.671876 25.65625zm0 0" fill="#33bfff"/><path d="m282.65625 261.25 13.332031-12.570312-13.332031-7.820313-204.398438 118.15625-.019531 20.257813 13.375 7.730468zm0 0" fill="#33bfff"/><path d="m295.679688 269.019531.417968-20.402343-204.394531 118.15625-.019531 20.261718zm0 0" fill="#03a9f4"/><path d="m393.652344 325.332031-199.753906 115.332031-97.992188-56.320312s-3.199219-1.335938-3.242188-6.753906c-.050781-5.902344 3.242188-8.386719 3.242188-8.386719l199.738281-100.195313zm0 0" fill="#303a59"/><path d="m393.652344 310.195312-199.753906 115.332032-97.992188-56.324219 199.972656-115.457031zm0 0" fill="#303a59"/><path d="m393.644531 325.332031 13.332031-12.574219-13.332031-7.820312-204.394531 118.15625-.023438 20.261719 13.375 7.726562zm0 0" fill="#33bfff"/><path d="m406.984375 333.285156v-20.527344l-204.292969 118.097657-.019531 20.257812zm0 0" fill="#03a9f4"/><path d="m389.820312 191.363281-11.359374-52.824219v-.011718c-.652344-3.039063 1.675781-6.125 5.1875-6.878906 3.511718-.753907 6.902343 1.097656 7.554687 4.140624l.003906.007813 39.511719 183.777344c.640625 3.03125-1.679688 6.101562-5.191406 6.855469-3.511719.757812-6.890625-1.089844-7.550782-4.117188l-.003906-.011719s-13.523437-62.890625-13.523437-62.890625l-.003907-.019531s-1.097656-5.117187-1.097656-5.117187l-10.257812-47.707032-.003906-.019531s-3.261719-15.171875-3.261719-15.171875zm0 0" fill="#303a59"/><path d="m413.90625 303.375c6.878906 2.824219 10.324219.816406 12.75-2.675781l4.058594 18.878906c.640625 3.03125-1.679688 6.097656-5.191406 6.855469-3.507813.753906-6.886719-1.089844-7.546876-4.117188 0 0-.003906-.015625-.003906-.015625zm0 0" fill="#03a9f4"/><g fill="#303a59"><path d="m301.851562 95.09375-38.113281-21.933594h-.011719c-1.890624-1.085937-2.175781-4.125-.65625-6.773437 1.527344-2.644531 4.300782-3.917969 6.175782-2.839844l.011718.007813 42.261719 24.304687c.1875.113281.359375.234375.503907.378906l38.136718 21.933594c.183594.109375.359375.234375.511719.378906l38.085937 21.898438c1.878907 1.097656 2.167969 4.128906.648438 6.773437-1.53125 2.648438-4.289062 3.921875-6.179688 2.84375v-.007812s-42.25-24.304688-42.25-24.304688h-.011718c-.183594-.113281-.359375-.234375-.511719-.378906l-38.078125-21.902344h-.007812c-.1875-.113281-.359376-.234375-.515626-.378906zm0 0"/><path d="m262.667969 63.390625c2.257812-1.3125 5.347656-.226563 6.90625 2.421875 1.550781 2.660156.984375 5.882812-1.261719 7.214844h-.011719s-50.585937 29.652344-50.585937 29.652344l-.007813.007812c-2.257812 1.324219-5.347656.238281-6.910156-2.421875-1.558594-2.65625-.992187-5.890625 1.265625-7.214844h.007812zm0 0"/><path d="m236.003906 78.785156c2.257813-1.3125 5.347656-.226562 6.90625 2.421875 1.550782 2.660157.984375 5.882813-1.261718 7.214844h-.011719s-50.582031 29.652344-50.582031 29.652344l-.011719.007812c-2.257813 1.324219-5.359375.238281-6.90625-2.421875-1.5625-2.65625-.996094-5.890625 1.261719-7.214844h.011718zm0 0"/><path d="m381.910156 132.234375c2.257813-1.3125 5.347656-.226563 6.910156 2.421875 1.546876 2.660156.984376 5.882812-1.265624 7.214844h-.007813s-50.585937 29.648437-50.585937 29.648437l-.011719.011719c-2.257813 1.324219-5.347657.238281-6.90625-2.421875-1.558594-2.65625-.996094-5.890625 1.261719-7.214844h.011718zm0 0"/><path d="m355.25 147.628906c2.257812-1.3125 5.34375-.226562 6.90625 2.421875 1.550781 2.660157.984375 5.882813-1.261719 7.214844h-.011719s-50.585937 29.648437-50.585937 29.648437l-.011719.011719c-2.257812 1.324219-5.355468.234375-6.90625-2.421875-1.558594-2.65625-.996094-5.890625 1.261719-7.214844h.011719zm0 0"/><path d="m311.632812 92.105469s10.898438-19.992188 15.261719-27.976563c.460938-.851562 1.25-1.488281 2.1875-1.742187.933594-.265625 1.9375-.144531 2.78125.347656 8.175781 4.722656 29.820313 17.222656 38.402344 22.179687 1.980469 1.136719 2.65625 3.664063 1.519531 5.644532-4.691406 8.117187-15.714844 27.207031-15.714844 27.207031h-2.410156zm0 0"/></g><path d="m309.210938 92.105469s10.242187-18.789063 14.839843-27.214844c.574219-1.046875 1.550781-1.828125 2.710938-2.15625 1.148437-.328125 2.390625-.164063 3.425781.429687 8.695312 5.019532 29.320312 16.9375 37.65625 21.75 1.980469 1.136719 2.65625 3.664063 1.519531 5.644532-4.691406 8.117187-15.714843 27.207031-15.714843 27.207031zm0 0" fill="#444967"/><path d="m314.242188 91.65625s8.085937-14.832031 12.085937-22.160156c.578125-1.058594 1.546875-1.832032 2.703125-2.160156 1.160156-.324219 2.398438-.171876 3.4375.429687 7.398438 4.277344 23.234375 13.421875 30.339844 17.523437.949218.542969 1.644531 1.445313 1.929687 2.511719.28125 1.058594.136719 2.1875-.414062 3.132813-4.09375 7.085937-12.835938 22.226562-12.835938 22.226562zm0 0" fill="#d8ecf3"/><path d="m318.953125 91.238281 11.695313-21.441406 31.035156 17.917969-12.210938 21.144531zm0 0" fill="#4dabf5"/></g></svg>