<?xml version="1.0" encoding="iso-8859-1"?>
<!-- Generator: Adobe Illustrator 19.0.0, SVG Export Plug-In . SVG Version: 6.00 Build 0)  -->
<svg version="1.1" id="Capa_1" xmlns="http://www.w3.org/2000/svg" xmlns:xlink="http://www.w3.org/1999/xlink" x="0px" y="0px"
	 viewBox="0 0 512 512" style="enable-background:new 0 0 512 512;" xml:space="preserve">
<path style="fill:#CCFF69;" d="M414.85,382.731c0.173-61.317-35.562-133.715-84.467-177.831l22.771-13.234
	c13.734-7.982,22.25-24.954,22.319-49.077c0.138-48.557-34.005-107.696-76.263-132.093c-21.267-12.279-40.536-13.419-54.45-5.333
	l-84.456,49.081c0.045-0.026,0.091-0.049,0.136-0.075c-13.813,7.949-22.386,24.949-22.455,49.149
	c-0.089,31.259,14.039,66.894,35.382,94.831l-42.008,24.413c0.185-0.108,0.374-0.208,0.56-0.313
	c-21.238,12.015-34.437,37.98-34.542,75.031l-0.228,80.189L330.166,512l0,0l0,0l0,0l0,0l84.456-49.081L414.85,382.731z"/>
<g>
	<path style="fill:#8DC43D;" d="M131.36,222.561l84.456-49.08c16.845-9.789,38.844-10.698,63.429-1.262l-84.456,49.08
		C170.204,211.865,148.204,212.773,131.36,222.561z"/>
	<path style="fill:#8DC43D;" d="M318.187,194.702l-84.456,49.08c55.045,42.447,96.851,121.719,96.662,188.028L330.166,512
		l84.456-49.081l0.228-80.189C415.038,316.421,373.231,237.149,318.187,194.702z"/>
</g>
<path style="fill:#CCFF69;" d="M299.209,10.496C277.943-1.782,258.674-2.922,244.76,5.164l-84.456,49.081
	c13.914-8.085,33.183-6.945,54.449,5.332c42.258,24.397,76.401,83.536,76.263,132.093c-0.068,24.123-8.585,41.095-22.319,49.077
	l84.456-49.081c13.734-7.982,22.25-24.954,22.319-49.077C375.61,94.032,341.467,34.893,299.209,10.496z"/>
<path style="fill:#ACDD58;" d="M214.753,59.577c42.258,24.397,76.401,83.536,76.263,132.094
	c-0.116,40.827-24.43,61.173-57.286,52.112c55.045,42.447,96.851,121.719,96.662,188.028L330.166,512L97.15,377.467l0.228-80.189
	c0.188-66.31,42.306-97.128,97.412-75.98c-32.798-28.845-56.919-77.154-56.803-117.982C138.123,54.761,172.495,35.18,214.753,59.577
	z"/>
<path style="fill:#BE3E50;" d="M352.387,362.926c-11.006-6.354-20.977-6.943-28.177-2.759l-7.207,4.188
	c-6.918-17.1-19.435-33.079-33.753-41.346c-11.006-6.354-20.978-6.944-28.179-2.76l-50.015,29.066
	c0.023-0.014,0.047-0.025,0.07-0.039c-7.149,4.115-11.587,12.914-11.622,25.44c-0.142,50.133,70.205,131.116,73.907,135.378
	c2.376,0.013,32.117,0.171,53.275-12.841c-0.425,0.262-0.854,0.519-1.286,0.771l50.015-29.066
	c12.534-7.284,22.392-18.957,22.445-37.662C391.931,406.165,374.259,375.554,352.387,362.926z"/>
<g>
	<path style="fill:#D6505C;" d="M205.055,349.317l50.015-29.066c7.2-4.185,17.173-3.594,28.179,2.76
		c14.849,8.573,27.762,25.439,34.501,43.25l-50.015,29.066c-6.739-17.81-19.652-34.677-34.501-43.25
		C222.228,345.722,212.257,345.132,205.055,349.317z"/>
	<path style="fill:#D6505C;" d="M274.195,389.234l50.015-29.066c7.2-4.185,17.171-3.596,28.177,2.759l-50.015,29.066
		C291.366,385.638,281.394,385.049,274.195,389.234z"/>
	<path style="fill:#D6505C;" d="M369.414,468.961l-50.015,29.066c12.534-7.284,22.393-18.957,22.445-37.662
		c0.071-25.132-17.601-55.743-39.473-68.371l50.015-29.066c21.872,12.628,39.544,43.238,39.473,68.371
		C391.807,450.003,381.948,461.677,369.414,468.961z"/>
</g>
<path style="fill:#BE3E50;" d="M302.372,391.992c21.872,12.628,39.544,43.238,39.473,68.371
	c-0.142,50.133-70.72,49.753-74.434,49.733c-3.702-4.262-74.049-85.246-73.907-135.378c0.071-25.132,17.859-35.269,39.731-22.642
	c14.849,8.573,27.762,25.439,34.502,43.25C274.553,385.343,287.52,383.418,302.372,391.992z"/>
<g>
</g>
<g>
</g>
<g>
</g>
<g>
</g>
<g>
</g>
<g>
</g>
<g>
</g>
<g>
</g>
<g>
</g>
<g>
</g>
<g>
</g>
<g>
</g>
<g>
</g>
<g>
</g>
<g>
</g>
</svg>
