<svg height="512pt" viewBox="-67 -49 512 512" width="512pt" xmlns="http://www.w3.org/2000/svg"><g fill-rule="evenodd"><path d="m374.582031 250.890625 64.378907 37.164063 6.4375 26.015624-9.378907 5.410157s-54.03125-41.921875-80.746093-57.441407zm0 0" fill="#03a9f4"/><path d="m365.207031 256.308594 64.378907 37.164062 6.4375 26.015625-90.128907-52.03125zm0 0" fill="#82b1ff"/><path d="m366.097656 278.09375 34.792969 2.207031-15.480469 8.941407-90.121094 7.433593-19.308593-11.148437zm0 0" fill="#82b1ff"/><path d="m291.460938 276.585938 90.121093-7.433594-15.351562 8.859375-90.25 7.515625z" fill="#03a9f4"/><path d="m310.773438 287.734375 90.117187-7.433594-15.347656 8.859375-90.253907 7.515625z" fill="#03a9f4"/><path d="m381.582031 269.152344 19.308594 11.148437-90.117187 7.433594-19.3125-11.148437zm0 0" fill="#82b1ff"/><path d="m248.96875 234.195312c-2.371094-1.367187-6.984375 2.203126-10.300781 7.972657-3.320313 5.769531-4.085938 11.550781-1.714844 12.917969 2.371094 1.363281 6.984375-2.207032 10.300781-7.976563 3.320313-5.769531 4.085938-11.550781 1.714844-12.914063zm0 0" fill="#303a59"/><path d="m250.164062 234.882812c-2.371093-1.363281-6.984374 2.207032-10.300781 7.972657-3.320312 5.769531-4.085937 11.554687-1.714843 12.917969 2.375 1.363281 6.984374-2.207032 10.304687-7.976563 3.316406-5.769531 4.085937-11.550781 1.710937-12.914063zm0 0" fill="#303a59"/><path d="m238.113281 255.949219-.007812-.003907c-2.371094-1.363281-1.601563-7.15625 1.714843-12.917968 3.3125-5.765625 7.929688-9.335938 10.296876-7.972656l.007812.007812 53.125 30.554688-12.015625 20.886718zm0 0" fill="#82b1ff"/><path d="m303.242188 265.613281c-2.375-1.363281-6.984376 2.207031-10.304688 7.976563-3.316406 5.765625-4.085938 11.550781-1.710938 12.914062 2.371094 1.363282 6.984376-2.207031 10.300782-7.976562 3.316406-5.765625 4.085937-11.550782 1.714844-12.914063zm0 0" fill="#82b1ff"/><path d="m253.636719 264.9375-.007813-.003906c-2.371094-1.363282-1.601562-7.15625 1.714844-12.917969 3.316406-5.765625 7.929688-9.335937 10.300781-7.972656l.007813.003906 53.125 30.558594-12.015625 20.886719zm0 0" fill="#82b1ff"/><path d="m318.765625 274.601562c-2.371094-1.363281-6.984375 2.207032-10.304687 7.972657-3.316407 5.769531-4.082032 11.554687-1.710938 12.917969 2.371094 1.363281 6.984375-2.207032 10.300781-7.976563 3.320313-5.769531 4.085938-11.550781 1.714844-12.914063zm0 0" fill="#303a59"/><path d="m319.960938 275.289062c-2.371094-1.363281-6.984376 2.207032-10.300782 7.976563-3.320312 5.769531-4.085937 11.550781-1.714844 12.914063 2.371094 1.363281 6.984376-2.207032 10.304688-7.972657 3.316406-5.769531 4.085938-11.554687 1.710938-12.917969zm0 0" fill="#444967"/><path d="m297.195312 53.441406c3.03125-.625 6.21875-.128906 8.964844 1.457032 13.015625 7.515624 31.097656 17.949218 42.871094 24.75 7.128906 4.113281 10.832031 12.324218 9.195312 20.390624-7.203124 35.550782-26.625 131.476563-33.773437 166.796876-.625 3.078124-2.691406 5.671874-5.554687 6.957031-2.164063.976562-4.578126 1.125-6.808594.453125h-10.570313l2.121094-4.570313-38.652344-22.320312c-4.574219-2.640625-7.03125-7.835938-6.164062-13.046875 4.957031-29.886719 21.453125-129.164063 28.296875-170.425782.449218-2.652343 1.695312-5.054687 3.539062-6.910156l-5.78125-3.339844zm0 0" fill="#303a59"/><path d="m308.945312 265.824219c-.667968 3.308593-2.890624 6.097656-5.96875 7.488281-3.085937 1.386719-6.644531 1.210938-9.566406-.484375-12.902344-7.449219-32.554687-18.789063-43.550781-25.140625-4.917969-2.835938-7.566406-8.433594-6.636719-14.039062 5.039063-30.328126 21.035156-126.621094 27.972656-168.375.734376-4.460938 3.617188-8.273438 7.707032-10.203126 4.078125-1.933593 8.859375-1.734374 12.769531.527344 12.578125 7.253906 29.339844 16.9375 40.746094 23.523438 7.671875 4.429687 11.65625 13.261718 9.894531 21.945312-7.285156 35.996094-26.121094 128.992188-33.367188 164.757813zm0 0" fill="#444967"/><g fill="#f44336"><path d="m276.214844 113.628906 19.628906 11.335938-7.089844 33.253906-18.820312-10.867188zm0 0"/><path d="m300.210938 127.484375 19.628906 11.335937-7.089844 33.253907-18.820312-10.867188zm0 0"/><path d="m267.519531 153.207031 19.632813 11.335938-7.09375 33.257812-18.820313-10.867187zm0 0"/><path d="m291.515625 167.0625 19.632813 11.335938-7.09375 33.257812-18.820313-10.867188zm0 0"/><path d="m259.476562 189.355469 19.628907 11.335937-7.089844 33.253906-18.820313-10.867187zm0 0"/><path d="m283.472656 203.210938 19.628906 11.335937-7.089843 33.253906-18.820313-10.867187zm0 0"/></g><path d="m154.644531 282.792969 72.25-23.609375c3.089844-1.78125 6.902344-1.78125 9.996094 0l52.671875 27.167968 10.316406-1.476562.222656 17.578125c.007813.125.007813.261719.007813.386719 0 4.429687-2.355469 8.519531-6.191406 10.734375-21.339844 12.316406-55.480469 32.027343-71.773438 41.4375-5.726562 3.300781-12.769531 3.300781-18.488281 0-14.8125-8.554688-43.839844-25.308594-59.933594-34.601563-2.363281-1.367187-3.8125-3.878906-3.8125-6.605468 0-.367188.3125-19.660157.3125-19.660157l5.167969.148438zm0 0" fill="#303a59"/><path d="m144.59375 302.808594c-2.539062-1.46875-4.105469-4.179688-4.105469-7.109375 0-2.933594 1.566407-5.640625 4.105469-7.113281 21.839844-12.601563 66.492188-38.386719 81.914062-47.285157 3.332032-1.929687 7.4375-1.929687 10.761719 0 11.078125 6.394531 36.925781 21.316407 55.226563 31.878907 4.125 2.382812 6.675781 6.785156 6.675781 11.554687 0 4.765625-2.550781 9.167969-6.675781 11.550781-21.09375 12.175782-53.457032 30.867188-69.65625 40.210938-6.152344 3.554687-13.738282 3.554687-19.890625 0-14.734375-8.507813-42.363281-24.453125-58.355469-33.6875zm0 0" fill="#444967"/><path d="m162.152344 289.449219 70.816406-40.882813 6.4375 3.714844-70.808594 40.882812zm0 0" fill="#f44336"/><path d="m216.871094 321.039062 70.8125-40.878906 6.4375 3.714844-70.808594 40.882812zm0 0" fill="#f44336"/><path d="m103.316406 397.746094 64.375 37.164062 6.4375 26.015625-9.378906 5.414063s-54.03125-41.921875-80.746094-57.445313zm0 0" fill="#03a9f4"/><path d="m93.9375 403.164062 64.378906 37.164063 6.4375 26.015625-90.125-52.03125zm0 0" fill="#82b1ff"/><path d="m119.6875 418.03125 12.597656 7.59375 38.90625-111.65625-12.875-7.433594zm0 0" fill="#82b1ff"/><path d="m139.914062 421.226562 37.714844-110.976562-6.4375 3.71875-38.90625 111.65625zm0 0" fill="#03a9f4"/><path d="m158.316406 306.535156 6.4375-3.71875 12.875 7.433594-6.4375 3.71875zm0 0" fill="#03a9f4"/><path d="m143.609375 312.550781-.011719-.007812c-3.207031-1.84375-3.707031-7.011719-1.109375-11.523438 2.59375-4.511719 7.308594-6.675781 10.515625-4.828125l.011719.003906 71.921875 41.371094-9.40625 16.351563zm0 0" fill="#82b1ff"/><path d="m109.679688 265.175781c-4.9375-2.839843-12.171876.484375-16.164063 7.425781-3.992187 6.9375-3.226563 14.867188 1.707031 17.703126 4.933594 2.839843 12.171875-.484376 16.164063-7.425782 3.992187-6.941406 3.226562-14.867187-1.707031-17.703125zm0 0" fill="#303a59"/><path d="m109.691406 265.171875 46.238282 26.695313-14.347657 25.195312-45.179687-26.210938zm0 0" fill="#303a59"/><path d="m155.914062 291.867188c-4.9375-2.839844-12.171874.484374-16.164062 7.425781-3.992188 6.9375-3.226562 14.867187 1.707031 17.703125 4.933594 2.839844 12.171875-.484375 16.164063-7.425782 3.992187-6.9375 3.226562-14.867187-1.707032-17.703124zm0 0" fill="#444967"/><path d="m200.695312 323.570312c-3.210937-1.847656-7.921874.316407-10.519531 4.832032-2.597656 4.515625-2.101562 9.675781 1.109375 11.523437 3.214844 1.847657 7.921875-.316406 10.519532-4.832031 2.597656-4.519531 2.101562-9.675781-1.109376-11.523438zm0 0" fill="#82b1ff"/><path d="m146.582031 314.265625-.011719-.007813c-3.207031-1.84375-3.707031-7.007812-1.109374-11.523437 2.59375-4.511719 7.308593-6.671875 10.515624-4.828125l.011719.007812 71.921875 41.367188-9.40625 16.355469zm0 0" fill="#82b1ff"/><path d="m193.15625 313.371094c-4.933594-2.839844-12.167969.488281-16.160156 7.425781-3.992188 6.941406-3.226563 14.867187 1.707031 17.707031 4.933594 2.835938 12.171875-.488281 16.160156-7.429687 3.992188-6.9375 3.230469-14.863281-1.707031-17.703125zm0 0" fill="#303a59"/><path d="m193.171875 313.371094 46.238281 26.691406-14.351562 25.195312-45.175782-26.210937zm0 0" fill="#303a59"/><path d="m239.394531 340.0625c-4.9375-2.835938-12.171875.488281-16.164062 7.425781-3.992188 6.941407-3.226563 14.867188 1.707031 17.707031 4.933594 2.835938 12.171875-.488281 16.164062-7.425781 3.988282-6.941406 3.226563-14.867187-1.707031-17.707031zm0 0" fill="#444967"/><path d="m119.234375 371.21875-.011719-.003906c-3.207031-1.847656-3.707031-7.011719-1.109375-11.523438 2.597657-4.515625 7.308594-6.675781 10.515625-4.832031l.011719.007813 71.921875 41.367187-9.40625 16.355469zm0 0" fill="#82b1ff"/><path d="m85.304688 323.84375c-4.9375-2.835938-12.171876.488281-16.164063 7.425781-3.992187 6.941407-3.226563 14.867188 1.707031 17.707031 4.933594 2.835938 12.171875-.488281 16.164063-7.425781 3.992187-6.941406 3.226562-14.867187-1.707031-17.707031zm0 0" fill="#303a59"/><path d="m85.316406 323.84375 46.238282 26.695312-14.347657 25.195313-45.179687-26.214844zm0 0" fill="#303a59"/><path d="m131.539062 350.535156c-4.933593-2.835937-12.171874.488282-16.164062 7.429688-3.992188 6.9375-3.226562 14.863281 1.707031 17.703125 4.9375 2.839843 12.171875-.488281 16.164063-7.425781 3.992187-6.941407 3.226562-14.867188-1.707032-17.707032zm0 0" fill="#444967"/><path d="m176.320312 382.242188c-3.210937-1.847657-7.921874.316406-10.519531 4.832031-2.597656 4.515625-2.101562 9.675781 1.113281 11.519531 3.210938 1.847656 7.917969-.316406 10.515626-4.832031 2.597656-4.515625 2.101562-9.675781-1.109376-11.519531zm0 0" fill="#82b1ff"/><path d="m122.207031 372.9375-.011719-.007812c-3.207031-1.84375-3.707031-7.011719-1.109374-11.523438 2.59375-4.511719 7.308593-6.675781 10.515624-4.828125l.011719.003906 71.921875 41.371094-9.40625 16.351563zm0 0" fill="#82b1ff"/><path d="m168.78125 372.042969c-4.933594-2.839844-12.167969.484375-16.160156 7.425781-3.992188 6.9375-3.226563 14.867188 1.707031 17.703125 4.933594 2.839844 12.171875-.484375 16.164063-7.425781 3.988281-6.941406 3.226562-14.867188-1.710938-17.703125zm0 0" fill="#303a59"/><path d="m168.796875 372.039062 46.238281 26.695313-14.347656 25.195313-45.179688-26.210938zm0 0" fill="#303a59"/><path d="m215.019531 398.734375c-4.9375-2.839844-12.171875.484375-16.164062 7.425781-3.992188 6.9375-3.226563 14.867188 1.707031 17.703125 4.933594 2.839844 12.171875-.484375 16.164062-7.425781 3.988282-6.9375 3.226563-14.867188-1.707031-17.703125zm0 0" fill="#444967"/></g></svg>